<svg width="158" height="62" viewBox="0 0 158 62" fill="none" xmlns="http://www.w3.org/2000/svg">
<g filter="url(#filter0_d_5_32)">
<path d="M25.72 25.47C25.8933 25.2967 26.11 25.2317 26.37 25.275C26.6733 25.3183 26.955 25.4267 27.215 25.6C27.475 25.7733 27.67 26.0117 27.8 26.315C27.93 26.575 27.9083 26.8567 27.735 27.16C27.1717 28.85 26.37 30.54 25.33 32.23C24.3333 33.8767 23.185 35.4367 21.885 36.91C20.585 38.3833 19.22 39.7267 17.79 40.94C16.36 42.1533 14.9517 43.15 13.565 43.93C12.915 44.2767 12.2217 44.4067 11.485 44.32C10.7483 44.2333 10.0117 44.0383 9.275 43.735C8.53833 43.3883 7.86667 42.9983 7.26 42.565C6.65333 42.1317 6.155 41.72 5.765 41.33C4.94167 40.4633 4.48667 39.315 4.4 37.885C4.31333 36.4117 4.48667 34.83 4.92 33.14C5.31 31.45 5.91667 29.695 6.74 27.875C7.56333 26.055 8.47333 24.3433 9.47 22.74C10.51 21.1367 11.5933 19.7283 12.72 18.515C13.8467 17.3017 14.9083 16.4133 15.905 15.85C16.5117 15.5467 17.075 15.395 17.595 15.395C18.115 15.3517 18.6567 15.4383 19.22 15.655C19.7833 15.8283 20.3467 16.11 20.91 16.5C21.5167 16.8467 22.1883 17.2367 22.925 17.67C23.965 18.32 24.4417 19.1433 24.355 20.14C24.355 20.6167 24.16 21.4617 23.77 22.675C23.4233 23.8883 22.9033 25.1667 22.21 26.51C21.56 27.81 20.7367 29.045 19.74 30.215C18.7867 31.3417 17.7033 32.1 16.49 32.49C15.6233 32.7067 14.865 32.7717 14.215 32.685C13.565 32.5983 12.85 32.3817 12.07 32.035C11.8533 32.4683 11.615 33.1183 11.355 33.985C11.095 34.8083 10.9 35.6533 10.77 36.52C10.64 37.3867 10.5967 38.1667 10.64 38.86C10.6833 39.51 10.9433 39.8783 11.42 39.965C12.1133 40.095 13.0883 39.7267 14.345 38.86C15.645 37.9933 16.9883 36.8667 18.375 35.48C19.7617 34.05 21.1267 32.4467 22.47 30.67C23.8133 28.8933 24.8967 27.16 25.72 25.47ZM19.22 20.66C18.7867 20.9633 18.2233 21.5483 17.53 22.415C16.88 23.2383 16.23 24.1267 15.58 25.08C14.9733 26.0333 14.4317 26.9217 13.955 27.745C13.5217 28.5683 13.305 29.0883 13.305 29.305C14.085 29.435 14.8 29.1967 15.45 28.59C16.1433 27.9833 16.75 27.225 17.27 26.315C17.8333 25.3617 18.2667 24.365 18.57 23.325C18.9167 22.285 19.1333 21.3967 19.22 20.66ZM76.7023 17.93C76.8757 16.4567 75.7707 15.2217 73.3873 14.225C71.0473 13.185 67.9707 12.47 64.1573 12.08C60.994 17.1933 58.394 22.8267 56.3573 28.98C54.1907 35.35 52.9773 40.8317 52.7173 45.425C52.414 50.0617 53.519 52.5533 56.0323 52.9C55.2957 53.55 54.299 53.7883 53.0423 53.615C51.829 53.485 50.5723 52.8133 49.2723 51.6C48.1023 50.5167 47.2573 48.7617 46.7373 46.335C46.4773 43.865 46.759 40.7233 47.5823 36.91C47.409 37.0833 47.2357 37.2783 47.0623 37.495C46.9323 37.6683 46.759 37.82 46.5423 37.95C44.4623 40.3333 42.7507 41.8717 41.4073 42.565C39.9773 43.085 38.6123 42.9333 37.3123 42.11C36.0123 41.2433 35.2757 40.2467 35.1023 39.12C35.0157 38.2967 35.124 37.3217 35.4273 36.195C35.514 35.5883 35.6223 35.0033 35.7523 34.44C35.9257 33.8767 36.099 33.335 36.2723 32.815C35.9257 33.2917 35.5357 33.79 35.1023 34.31C34.7123 34.83 34.279 35.3933 33.8023 36C32.979 37.2567 32.069 38.47 31.0723 39.64C30.119 40.7667 29.079 41.8717 27.9523 42.955C27.3023 43.4317 26.4357 43.54 25.3523 43.28C24.2257 43.02 23.1857 42.5217 22.2323 41.785C21.3223 41.0483 20.889 40.2467 20.9323 39.38C21.1057 37.6033 21.4957 35.8267 22.1023 34.05C22.709 32.23 23.5107 30.3883 24.5073 28.525C25.504 26.6183 26.5657 24.95 27.6923 23.52C28.819 22.0467 29.9673 20.79 31.1373 19.75C32.5673 18.71 33.824 18.3633 34.9073 18.71C35.9907 18.97 37.1173 19.5333 38.2873 20.4C38.504 20.53 38.7207 20.6817 38.9373 20.855C39.154 20.985 39.3707 21.115 39.5873 21.245C39.8473 20.8983 40.1073 20.595 40.3673 20.335C40.6707 20.0317 40.9523 19.7067 41.2123 19.36C41.3857 19.1 41.5807 18.84 41.7973 18.58C42.0573 18.32 42.3173 18.06 42.5773 17.8C43.0107 17.3233 43.704 17.215 44.6573 17.475C45.5673 17.7783 46.369 18.2767 47.0623 18.97C47.7123 19.6633 47.8857 20.3567 47.5823 21.05C44.6357 26.2067 42.7723 30.1283 41.9923 32.815C41.2123 35.545 41.1473 36.975 41.7973 37.105C42.8807 37.0183 44.1157 36 45.5023 34.05C46.239 33.0533 46.954 31.9917 47.6473 30.865C48.384 29.7383 49.1207 28.5467 49.8573 27.29C50.5073 26.0333 51.0707 24.9067 51.5473 23.91C52.0673 22.87 52.4573 21.9817 52.7173 21.245C53.4107 19.5983 54.104 17.995 54.7973 16.435C55.534 14.875 56.2707 13.3367 57.0073 11.82C49.3373 11.8633 43.0323 13.575 38.0923 16.955C37.7457 17.215 37.1823 17.15 36.4023 16.76C36.0557 16.5433 35.709 16.305 35.3623 16.045C35.059 15.7417 34.7557 15.395 34.4523 15.005C33.759 14.3117 33.3473 13.5967 33.2173 12.86C33.044 12.21 33.3257 11.6683 34.0623 11.235C37.9623 9.76167 42.0357 8.67833 46.2823 7.985C50.529 7.29167 54.949 6.98833 59.5423 7.075C60.409 5.73166 61.189 4.58333 61.8823 3.63C62.5757 2.67667 63.2473 1.89666 63.8973 1.29C64.4607 0.943331 65.0673 0.921664 65.7173 1.225C66.324 1.485 66.9307 1.85333 67.5373 2.33C67.7107 2.50333 67.8407 2.61166 67.9273 2.655C68.3173 2.87167 68.6423 3.13167 68.9023 3.435C69.1623 3.73833 69.3573 4.02 69.4873 4.28C69.7907 4.75666 69.7473 5.21166 69.3573 5.645C68.6207 6.295 67.9923 6.945 67.4723 7.595C68.859 7.76833 70.094 7.985 71.1773 8.245C72.2607 8.46166 73.214 8.72166 74.0373 9.025C75.3373 9.58833 76.3123 10.6067 76.9623 12.08C77.309 12.8167 77.5473 13.51 77.6773 14.16C77.8507 14.81 77.9373 15.46 77.9373 16.11C77.9373 17.3233 77.5257 17.93 76.7023 17.93ZM36.5323 25.73C36.5757 25.6433 36.619 25.5133 36.6623 25.34C36.7057 25.1667 36.7273 24.9717 36.7273 24.755C36.7273 24.365 36.6407 23.9967 36.4673 23.65C36.3807 23.26 36.1423 23 35.7523 22.87C35.4057 22.87 34.994 23.0867 34.5173 23.52C33.5207 24.6467 32.6107 25.8167 31.7873 27.03C30.964 28.2433 30.2057 29.5433 29.5123 30.93C28.1257 33.7467 27.4107 35.7183 27.3673 36.845C27.9307 36.3683 28.5807 35.74 29.3173 34.96C30.054 34.1367 30.9207 33.1183 31.9173 31.905C32.8707 30.735 33.7157 29.63 34.4523 28.59C35.2323 27.55 35.9257 26.5967 36.5323 25.73ZM96.4857 26.64C96.659 26.7267 96.8107 26.7917 96.9407 26.835C97.0707 26.8783 97.2007 26.9433 97.3307 27.03C97.4607 27.16 97.569 27.2683 97.6557 27.355C97.7857 27.4417 97.894 27.5283 97.9807 27.615C98.1107 27.8317 98.154 27.9833 98.1107 28.07C97.5474 29.1967 96.8974 30.4533 96.1607 31.84C95.4674 33.2267 94.644 34.7433 93.6907 36.39C91.7407 39.6833 89.7907 41.915 87.8407 43.085C87.1474 43.4317 86.2157 43.54 85.0457 43.41C84.5257 43.28 84.0274 43.1283 83.5507 42.955C83.1174 42.7817 82.6624 42.5433 82.1857 42.24C81.319 41.7633 80.8207 41.2 80.6907 40.55C80.4307 39.5533 80.539 38.0367 81.0157 36C81.2324 35.0033 81.4707 34.0283 81.7307 33.075C82.034 32.0783 82.3374 31.0817 82.6407 30.085C82.9874 29.0883 83.3124 28.2 83.6157 27.42C83.9624 26.5967 84.2657 25.8817 84.5257 25.275C83.659 26.1417 82.7707 27.1383 81.8607 28.265C80.994 29.3483 80.1274 30.6267 79.2607 32.1C78.3507 33.53 77.5057 35.025 76.7257 36.585C75.989 38.145 75.3174 39.7483 74.7107 41.395C74.5807 41.785 74.169 41.9367 73.4757 41.85C72.869 41.85 72.1974 41.6333 71.4607 41.2C70.854 40.81 70.5074 40.29 70.4207 39.64C70.4207 38.7733 70.6157 37.495 71.0057 35.805C71.2224 34.895 71.4174 34.0067 71.5907 33.14C71.8074 32.2733 72.024 31.4283 72.2407 30.605C72.4574 29.7383 72.6524 29.045 72.8257 28.525C72.999 28.005 73.129 27.615 73.2157 27.355C72.0024 28.6117 70.3774 30.9733 68.3407 34.44C67.214 36.2167 66.1524 37.9717 65.1557 39.705C64.2024 41.395 63.2707 43.1067 62.3607 44.84C62.1007 45.2733 61.559 45.4683 60.7357 45.425C60.3024 45.3383 59.9124 45.2517 59.5657 45.165C59.1757 45.035 58.8074 44.8617 58.4607 44.645C57.7674 44.2983 57.3774 43.8433 57.2907 43.28C57.5507 40.2467 58.4607 36.3683 60.0207 31.645C60.844 29.2617 61.624 27.2033 62.3607 25.47C63.1407 23.7367 63.9207 22.3067 64.7007 21.18C64.9174 20.8333 65.3507 20.7033 66.0007 20.79C66.2607 20.8767 66.5424 20.9633 66.8457 21.05C67.149 21.1367 67.4524 21.2667 67.7557 21.44C68.059 21.6567 68.319 21.8517 68.5357 22.025C68.7957 22.1983 69.0124 22.3933 69.1857 22.61C69.5757 23.0433 69.7057 23.4117 69.5757 23.715C69.229 24.1483 68.8824 24.6683 68.5357 25.275C68.189 25.8817 67.7774 26.6183 67.3007 27.485C66.434 29.045 65.589 30.9083 64.7657 33.075C65.1557 32.4683 65.6107 31.7533 66.1307 30.93C66.694 30.0633 67.3224 29.11 68.0157 28.07C68.709 27.03 69.4024 26.0117 70.0957 25.015C70.789 23.975 71.504 23 72.2407 22.09C73.5407 20.14 74.6457 18.8183 75.5557 18.125C76.0757 17.735 76.704 17.67 77.4407 17.93C77.8307 18.0167 78.199 18.1683 78.5457 18.385C78.9357 18.5583 79.2607 18.7967 79.5207 19.1C80.2574 19.6633 80.5607 20.2267 80.4307 20.79C80.3874 20.8767 80.344 21.0067 80.3007 21.18C80.3007 21.3533 80.2574 21.57 80.1707 21.83C80.084 22.0467 79.9757 22.3067 79.8457 22.61C79.759 22.87 79.6507 23.1517 79.5207 23.455C79.3907 23.9317 79.239 24.3867 79.0657 24.82C78.9357 25.2533 78.8274 25.665 78.7407 26.055C78.4374 26.835 78.3074 27.3117 78.3507 27.485C78.4374 27.3983 78.524 27.2683 78.6107 27.095C78.7407 26.9217 78.914 26.705 79.1307 26.445C79.6074 25.7083 80.1707 24.9283 80.8207 24.105C81.514 23.2383 82.294 22.2417 83.1607 21.115C84.894 18.9917 86.389 17.4967 87.6457 16.63C88.859 15.8933 90.029 16.1533 91.1557 17.41C91.5024 17.7567 91.784 18.1033 92.0007 18.45C92.2607 18.7533 92.434 19.0567 92.5207 19.36C92.7807 19.9667 92.6724 20.725 92.1957 21.635C91.849 22.285 91.4807 23.0867 91.0907 24.04C90.7007 24.95 90.2457 26.0333 89.7257 27.29C89.249 28.5467 88.7724 29.7817 88.2957 30.995C87.8624 32.165 87.4507 33.3567 87.0607 34.57C86.2374 36.9967 85.804 38.73 85.7607 39.77C87.624 38.73 89.3574 36.91 90.9607 34.31C91.8274 33.01 92.6074 31.7533 93.3007 30.54C94.0374 29.3267 94.7307 28.135 95.3807 26.965V26.835L96.4857 26.64ZM113.699 34.115C114.045 34.0717 114.284 34.2017 114.414 34.505C114.587 34.765 114.674 35.09 114.674 35.48C114.674 35.8267 114.587 36.1517 114.414 36.455C114.284 36.7583 114.11 36.91 113.894 36.91C112.897 37.04 111.965 37.0833 111.099 37.04C110.232 36.9967 109.214 36.78 108.044 36.39C107.827 36.8233 107.545 37.43 107.199 38.21C106.852 38.9467 106.419 39.7267 105.899 40.55C105.422 41.33 104.837 42.11 104.144 42.89C103.494 43.6267 102.757 44.2117 101.934 44.645C101.24 45.035 100.352 45.165 99.2685 45.035C98.2285 44.8617 97.1668 44.5367 96.0835 44.06C95.0435 43.5833 94.1118 42.9767 93.2885 42.24C92.4652 41.5033 91.9452 40.7017 91.7285 39.835C91.3818 38.665 91.3168 37.3867 91.5335 36C91.7502 34.6133 92.0968 33.27 92.5735 31.97C93.0502 30.6267 93.6352 29.4133 94.3285 28.33C94.9785 27.2033 95.6068 26.3583 96.2135 25.795C96.4302 25.5783 96.6685 25.3833 96.9285 25.21C97.1885 25.0367 97.4268 24.8417 97.6435 24.625C97.4702 23.715 97.3618 22.805 97.3185 21.895C97.2752 20.9417 97.4918 20.0317 97.9685 19.165C98.3585 18.4717 99.1602 18.0383 100.374 17.865C101.63 17.6483 102.93 17.735 104.274 18.125C105.66 18.515 106.917 19.23 108.044 20.27C109.17 21.31 109.842 22.6967 110.059 24.43C110.275 26.0333 110.254 27.5717 109.994 29.045C109.777 30.5183 109.495 32.035 109.149 33.595C109.539 33.855 110.167 34.05 111.034 34.18C111.944 34.31 112.832 34.2883 113.699 34.115ZM97.1885 41.59C98.8785 40.5933 100.114 39.4233 100.894 38.08C101.717 36.7367 102.432 35.3067 103.039 33.79C101.522 32.75 100.352 31.4283 99.5285 29.825C99.3118 30.0417 99.0302 30.6267 98.6835 31.58C98.3368 32.5333 97.9902 33.6383 97.6435 34.895C97.3402 36.1083 97.1235 37.3433 96.9935 38.6C96.8635 39.8133 96.9285 40.81 97.1885 41.59ZM104.014 30.085C104.274 29.4783 104.447 28.7633 104.534 27.94C104.62 27.0733 104.62 26.2283 104.534 25.405C104.49 24.5383 104.382 23.78 104.209 23.13C104.079 22.4367 103.927 21.9383 103.754 21.635C103.06 22.5017 102.735 23.6933 102.779 25.21C102.865 26.7267 103.277 28.3517 104.014 30.085ZM129.927 31.19C129.97 31.58 130.057 31.8617 130.187 32.035C130.36 32.165 130.512 32.2733 130.642 32.36C130.815 32.4033 130.945 32.4683 131.032 32.555C131.162 32.5983 131.205 32.7283 131.162 32.945C131.075 33.2917 130.685 33.4867 129.992 33.53C129.342 33.5733 128.627 33.5083 127.847 33.335C127.067 33.1617 126.33 32.9233 125.637 32.62C124.987 32.2733 124.618 31.8833 124.532 31.45C124.315 30.7133 124.228 29.9333 124.272 29.11C124.315 28.2433 124.315 27.3767 124.272 26.51C121.975 29.0233 120.003 31.7533 118.357 34.7C116.71 37.6033 115.41 41.005 114.457 44.905C114.327 45.3817 113.98 45.6417 113.417 45.685C112.81 45.685 112.182 45.555 111.532 45.295C110.882 45.035 110.318 44.6883 109.842 44.255C109.365 43.8217 109.17 43.3667 109.257 42.89C109.647 40.55 110.21 38.1017 110.947 35.545C111.64 32.9883 112.463 30.475 113.417 28.005C114.37 25.4917 115.388 23.1083 116.472 20.855C117.555 18.6017 118.617 16.5867 119.657 14.81C119.873 14.42 120.177 14.1817 120.567 14.095C120.957 14.0083 121.368 14.03 121.802 14.16C122.798 14.5067 123.492 14.94 123.882 15.46C124.315 15.9367 124.38 16.5 124.077 17.15C123.513 18.3633 122.907 19.6417 122.257 20.985C121.607 22.285 120.935 23.78 120.242 25.47C120.892 24.56 121.477 23.715 121.997 22.935C122.473 22.285 122.885 21.6567 123.232 21.05C123.622 20.4433 123.86 20.075 123.947 19.945C124.337 19.3383 124.662 19.0133 124.922 18.97C125.182 18.8833 125.615 18.97 126.222 19.23C127.435 19.7067 128.345 20.0533 128.952 20.27C129.558 20.4867 129.97 20.7683 130.187 21.115C130.403 21.4617 130.468 21.96 130.382 22.61C130.295 23.26 130.187 24.2567 130.057 25.6C129.797 27.55 129.753 29.4133 129.927 31.19ZM151.721 25.47C151.894 25.2967 152.111 25.2317 152.371 25.275C152.674 25.3183 152.956 25.4267 153.216 25.6C153.476 25.7733 153.671 26.0117 153.801 26.315C153.931 26.575 153.909 26.8567 153.736 27.16C153.173 28.85 152.371 30.54 151.331 32.23C150.334 33.8767 149.186 35.4367 147.886 36.91C146.586 38.3833 145.221 39.7267 143.791 40.94C142.361 42.1533 140.953 43.15 139.566 43.93C138.916 44.2767 138.223 44.4067 137.486 44.32C136.749 44.2333 136.013 44.0383 135.276 43.735C134.539 43.3883 133.868 42.9983 133.261 42.565C132.654 42.1317 132.156 41.72 131.766 41.33C130.943 40.4633 130.488 39.315 130.401 37.885C130.314 36.4117 130.488 34.83 130.921 33.14C131.311 31.45 131.918 29.695 132.741 27.875C133.564 26.055 134.474 24.3433 135.471 22.74C136.511 21.1367 137.594 19.7283 138.721 18.515C139.848 17.3017 140.909 16.4133 141.906 15.85C142.513 15.5467 143.076 15.395 143.596 15.395C144.116 15.3517 144.658 15.4383 145.221 15.655C145.784 15.8283 146.348 16.11 146.911 16.5C147.518 16.8467 148.189 17.2367 148.926 17.67C149.966 18.32 150.443 19.1433 150.356 20.14C150.356 20.6167 150.161 21.4617 149.771 22.675C149.424 23.8883 148.904 25.1667 148.211 26.51C147.561 27.81 146.738 29.045 145.741 30.215C144.788 31.3417 143.704 32.1 142.491 32.49C141.624 32.7067 140.866 32.7717 140.216 32.685C139.566 32.5983 138.851 32.3817 138.071 32.035C137.854 32.4683 137.616 33.1183 137.356 33.985C137.096 34.8083 136.901 35.6533 136.771 36.52C136.641 37.3867 136.598 38.1667 136.641 38.86C136.684 39.51 136.944 39.8783 137.421 39.965C138.114 40.095 139.089 39.7267 140.346 38.86C141.646 37.9933 142.989 36.8667 144.376 35.48C145.763 34.05 147.128 32.4467 148.471 30.67C149.814 28.8933 150.898 27.16 151.721 25.47ZM145.221 20.66C144.788 20.9633 144.224 21.5483 143.531 22.415C142.881 23.2383 142.231 24.1267 141.581 25.08C140.974 26.0333 140.433 26.9217 139.956 27.745C139.523 28.5683 139.306 29.0883 139.306 29.305C140.086 29.435 140.801 29.1967 141.451 28.59C142.144 27.9833 142.751 27.225 143.271 26.315C143.834 25.3617 144.268 24.365 144.571 23.325C144.918 22.285 145.134 21.3967 145.221 20.66Z" fill="white"/>
<path d="M25.72 25.47L25.0129 24.7629L24.8944 24.8814L24.821 25.032L25.72 25.47ZM26.37 25.275L26.2056 26.2614L26.2171 26.2633L26.2286 26.2649L26.37 25.275ZM27.215 25.6L27.7697 24.7679H27.7697L27.215 25.6ZM27.8 26.315L26.8809 26.7089L26.8924 26.7359L26.9056 26.7622L27.8 26.315ZM27.735 27.16L26.8668 26.6639L26.8176 26.7498L26.7863 26.8438L27.735 27.16ZM25.33 32.23L24.4783 31.7059L24.4745 31.7122L25.33 32.23ZM21.885 36.91L22.6348 37.5716L21.885 36.91ZM13.565 43.93L14.0356 44.8124L14.0455 44.8071L14.0553 44.8016L13.565 43.93ZM11.485 44.32L11.6018 43.3269H11.6018L11.485 44.32ZM9.275 43.735L8.8492 44.6398L8.87148 44.6503L8.89425 44.6597L9.275 43.735ZM7.26 42.565L7.84124 41.7513H7.84124L7.26 42.565ZM5.765 41.33L5.04 42.0187L5.04883 42.028L5.05789 42.0371L5.765 41.33ZM4.4 37.885L3.40172 37.9437L3.40183 37.9455L4.4 37.885ZM4.92 33.14L5.88866 33.3884L5.89167 33.3767L5.89439 33.3649L4.92 33.14ZM6.74 27.875L7.65111 28.2872L6.74 27.875ZM9.47 22.74L8.63104 22.1958L8.6258 22.2039L8.62071 22.2121L9.47 22.74ZM12.72 18.515L13.4528 19.1954L12.72 18.515ZM15.905 15.85L15.4578 14.9556L15.4351 14.9669L15.4129 14.9794L15.905 15.85ZM17.595 15.395V16.395H17.6366L17.678 16.3915L17.595 15.395ZM19.22 15.655L18.861 16.5883L18.8931 16.6007L18.9259 16.6108L19.22 15.655ZM20.91 16.5L20.3408 17.3222L20.3763 17.3468L20.4139 17.3682L20.91 16.5ZM22.925 17.67L23.455 16.822L23.4436 16.8149L23.432 16.8081L22.925 17.67ZM24.355 20.14L23.3588 20.0534L23.355 20.0966V20.14H24.355ZM23.77 22.675L22.818 22.369L22.813 22.3846L22.8085 22.4003L23.77 22.675ZM22.21 26.51L21.3213 26.0513L21.3156 26.0628L22.21 26.51ZM19.74 30.215L18.9788 29.5665L18.9766 29.5691L19.74 30.215ZM16.49 32.49L16.7325 33.4601L16.7646 33.4521L16.796 33.442L16.49 32.49ZM14.215 32.685L14.3472 31.6938L14.215 32.685ZM12.07 32.035L12.4761 31.1212L11.6029 30.7331L11.1756 31.5878L12.07 32.035ZM11.355 33.985L12.3086 34.2861L12.3108 34.2793L12.3128 34.2723L11.355 33.985ZM10.77 36.52L9.78106 36.3717L10.77 36.52ZM10.64 38.86L9.64194 38.9224L9.64222 38.9265L10.64 38.86ZM11.42 39.965L11.6043 38.9821L11.5989 38.9811L11.42 39.965ZM14.345 38.86L13.7903 38.028L13.7837 38.0323L13.7773 38.0368L14.345 38.86ZM18.375 35.48L19.0821 36.1871L19.0875 36.1817L19.0929 36.1761L18.375 35.48ZM22.47 30.67L21.6723 30.0669L22.47 30.67ZM19.22 20.66L20.2132 20.7768L20.4738 18.5617L18.6465 19.8408L19.22 20.66ZM17.53 22.415L16.7491 21.7903L16.7451 21.7954L17.53 22.415ZM15.58 25.08L14.7538 24.5167L14.7448 24.5298L14.7363 24.5431L15.58 25.08ZM13.955 27.745L13.0896 27.244L13.0795 27.2614L13.0701 27.2793L13.955 27.745ZM13.305 29.305H12.305V30.1521L13.1406 30.2914L13.305 29.305ZM15.45 28.59L14.7915 27.8374L14.7794 27.848L14.7677 27.8589L15.45 28.59ZM17.27 26.315L16.4091 25.8063L16.4054 25.8125L16.4018 25.8189L17.27 26.315ZM18.57 23.325L17.6213 23.0088L17.6153 23.0268L17.61 23.045L18.57 23.325ZM26.4271 26.1771C26.4068 26.1974 26.3631 26.2301 26.2998 26.2491C26.2394 26.2672 26.2015 26.2607 26.2056 26.2614L26.5344 24.2886C25.984 24.1969 25.434 24.3418 25.0129 24.7629L26.4271 26.1771ZM26.2286 26.2649C26.3811 26.2867 26.522 26.3399 26.6603 26.432L27.7697 24.7679C27.388 24.5135 26.9656 24.3499 26.5114 24.285L26.2286 26.2649ZM26.6603 26.432C26.7496 26.4916 26.8228 26.5734 26.8809 26.7089L28.7191 25.9211C28.5172 25.45 28.2004 25.0551 27.7697 24.7679L26.6603 26.432ZM26.9056 26.7622C26.9004 26.7519 26.8933 26.7341 26.8885 26.7102C26.8837 26.6861 26.8828 26.6633 26.8842 26.6446C26.8871 26.6071 26.8969 26.611 26.8668 26.6639L28.6032 27.6561C28.904 27.1298 29.0056 26.4901 28.6944 25.8678L26.9056 26.7622ZM26.7863 26.8438C26.2498 28.4533 25.4826 30.0739 24.4783 31.7059L26.1817 32.7541C27.2574 31.0061 28.0935 29.2467 28.6837 27.4762L26.7863 26.8438ZM24.4745 31.7122C23.5093 33.3068 22.3965 34.8188 21.1352 36.2484L22.6348 37.5716C23.9735 36.0545 25.1573 34.4465 26.1855 32.7478L24.4745 31.7122ZM21.1352 36.2484C19.8655 37.6874 18.5347 38.9967 17.143 40.1775L18.437 41.7025C19.9053 40.4566 21.3045 39.0793 22.6348 37.5716L21.1352 36.2484ZM17.143 40.1775C15.7533 41.3567 14.397 42.3147 13.0747 43.0584L14.0553 44.8016C15.5063 43.9853 16.9667 42.95 18.437 41.7025L17.143 40.1775ZM13.0944 43.0476C12.6257 43.2976 12.1375 43.3899 11.6018 43.3269L11.3682 45.3131C12.3059 45.4235 13.2043 45.2557 14.0356 44.8124L13.0944 43.0476ZM11.6018 43.3269C10.9623 43.2516 10.3142 43.0815 9.65575 42.8103L8.89425 44.6597C9.70912 44.9952 10.5344 45.2151 11.3682 45.3131L11.6018 43.3269ZM9.7008 42.8302C9.01365 42.5068 8.3947 42.1466 7.84124 41.7513L6.67876 43.3787C7.33864 43.8501 8.06301 44.2698 8.8492 44.6398L9.7008 42.8302ZM7.84124 41.7513C7.26491 41.3396 6.81233 40.9631 6.47211 40.6229L5.05789 42.0371C5.49767 42.4769 6.04176 42.9237 6.67876 43.3787L7.84124 41.7513ZM6.49 40.6413C5.85955 39.9776 5.47354 39.0682 5.39817 37.8245L3.40183 37.9455C3.49979 39.5618 4.02378 40.949 5.04 42.0187L6.49 40.6413ZM5.39827 37.8263C5.31867 36.473 5.47648 34.9959 5.88866 33.3884L3.95134 32.8916C3.49686 34.6641 3.30799 36.3503 3.40173 37.9437L5.39827 37.8263ZM5.89439 33.3649C6.2675 31.7481 6.851 30.0558 7.65111 28.2872L5.82889 27.4628C4.98233 29.3342 4.3525 31.1519 3.94561 32.9151L5.89439 33.3649ZM7.65111 28.2872C8.45743 26.5048 9.34703 24.832 10.3193 23.2679L8.62071 22.2121C7.59964 23.8547 6.66924 25.6052 5.82889 27.4628L7.65111 28.2872ZM10.309 23.2842C11.3222 21.722 12.3708 20.3606 13.4528 19.1954L11.9872 17.8345C10.8158 19.096 9.69775 20.5513 8.63104 22.1958L10.309 23.2842ZM13.4528 19.1954C14.5378 18.027 15.5202 17.2162 16.3971 16.7206L15.4129 14.9794C14.2965 15.6105 13.1555 16.5764 11.9872 17.8345L13.4528 19.1954ZM16.3522 16.7444C16.8607 16.4902 17.2701 16.395 17.595 16.395V14.395C16.8799 14.395 16.1626 14.6032 15.4578 14.9556L16.3522 16.7444ZM17.678 16.3915C18.026 16.3626 18.4164 16.4173 18.861 16.5883L19.579 14.7217C18.897 14.4593 18.204 14.3408 17.512 14.3985L17.678 16.3915ZM18.9259 16.6108C19.3768 16.7495 19.8484 16.9813 20.3408 17.3222L21.4792 15.6778C20.8449 15.2387 20.1899 14.9072 19.5141 14.6992L18.9259 16.6108ZM20.4139 17.3682C21.0162 17.7124 21.6842 18.1003 22.418 18.5319L23.432 16.8081C22.6925 16.3731 22.0171 15.9809 21.4061 15.6318L20.4139 17.3682ZM22.395 18.518C23.2027 19.0228 23.4049 19.5228 23.3588 20.0534L25.3512 20.2266C25.4784 18.7638 24.7273 17.6172 23.455 16.822L22.395 18.518ZM23.355 20.14C23.355 20.4385 23.2123 21.1422 22.818 22.369L24.722 22.981C25.1077 21.7811 25.355 20.7948 25.355 20.14H23.355ZM22.8085 22.4003C22.4831 23.539 21.9901 24.7556 21.3214 26.0514L23.0986 26.9686C23.8165 25.5777 24.3635 24.2376 24.7315 22.9497L22.8085 22.4003ZM21.3156 26.0628C20.7037 27.2865 19.9261 28.4545 18.9788 29.5665L20.5012 30.8635C21.5473 29.6355 22.4163 28.3335 23.1044 26.9572L21.3156 26.0628ZM18.9766 29.5691C18.1247 30.5759 17.1926 31.2138 16.184 31.538L16.796 33.442C18.2141 32.9862 19.4487 32.1074 20.5034 30.8609L18.9766 29.5691ZM16.2475 31.5199C15.4617 31.7163 14.8357 31.7589 14.3472 31.6938L14.0828 33.6762C14.8943 33.7844 15.7849 33.697 16.7325 33.4601L16.2475 31.5199ZM14.3472 31.6938C13.8152 31.6228 13.1937 31.4401 12.4761 31.1212L11.6639 32.9488C12.5063 33.3232 13.3148 33.5738 14.0828 33.6762L14.3472 31.6938ZM11.1756 31.5878C10.92 32.099 10.6621 32.8145 10.3972 33.6977L12.3128 34.2723C12.5679 33.4222 12.7867 32.8377 12.9644 32.4822L11.1756 31.5878ZM10.4014 33.6839C10.1254 34.5579 9.91871 35.454 9.78106 36.3717L11.7589 36.6683C11.8813 35.8527 12.0646 35.0588 12.3086 34.2861L10.4014 33.6839ZM9.78106 36.3717C9.64319 37.2908 9.59325 38.1432 9.64195 38.9224L11.6381 38.7976C11.6001 38.1901 11.6368 37.4825 11.7589 36.6683L9.78106 36.3717ZM9.64222 38.9265C9.67098 39.3579 9.77741 39.8135 10.0505 40.2004C10.3436 40.6157 10.7662 40.8625 11.2411 40.9489L11.5989 38.9811C11.588 38.9791 11.6026 38.9803 11.6286 38.9964C11.6559 39.0132 11.6751 39.0337 11.6845 39.0471C11.6921 39.0579 11.6838 39.0505 11.6715 39.0092C11.659 38.9671 11.6447 38.8978 11.6378 38.7935L9.64222 38.9265ZM11.2357 40.9479C11.8289 41.0591 12.4423 40.9417 13.0247 40.7217C13.614 40.4991 14.2456 40.1433 14.9127 39.6832L13.7773 38.0368C13.1878 38.4433 12.7035 38.7051 12.3179 38.8508C11.9252 38.9991 11.7044 39.0009 11.6043 38.9821L11.2357 40.9479ZM14.8997 39.6921C16.2663 38.781 17.6601 37.6091 19.0821 36.1871L17.6679 34.7729C16.3166 36.1242 15.0237 37.2057 13.7903 38.028L14.8997 39.6921ZM19.0929 36.1761C20.5111 34.7136 21.9025 33.0786 23.2677 31.2731L21.6723 30.0669C20.3508 31.8147 19.0122 33.3864 17.6571 34.7839L19.0929 36.1761ZM23.2677 31.2731C24.6431 29.454 25.7627 27.6657 26.619 25.908L24.821 25.032C24.0307 26.6543 22.9836 28.3327 21.6723 30.0669L23.2677 31.2731ZM18.6465 19.8408C18.089 20.2311 17.4516 20.9122 16.7491 21.7903L18.3109 23.0397C18.9951 22.1845 19.4844 21.6956 19.7935 21.4792L18.6465 19.8408ZM16.7451 21.7954C16.0793 22.6387 15.4156 23.546 14.7538 24.5167L16.4062 25.6433C17.0444 24.7074 17.6807 23.838 18.3149 23.0346L16.7451 21.7954ZM14.7363 24.5431C14.1235 25.5061 13.5744 26.4065 13.0896 27.244L14.8204 28.246C15.2889 27.4368 15.8232 26.5605 16.4237 25.6169L14.7363 24.5431ZM13.0701 27.2793C12.8472 27.7028 12.6692 28.0684 12.5444 28.3679C12.4821 28.5174 12.4271 28.6646 12.3863 28.8035C12.3496 28.9282 12.305 29.1088 12.305 29.305H14.305C14.305 29.3928 14.2875 29.4272 14.305 29.3678C14.3183 29.3224 14.3446 29.2476 14.3906 29.1371C14.4824 28.9166 14.6295 28.6106 14.8399 28.2107L13.0701 27.2793ZM13.1406 30.2914C14.2683 30.4793 15.2874 30.1097 16.1323 29.3211L14.7677 27.8589C14.3126 28.2837 13.9017 28.3907 13.4694 28.3186L13.1406 30.2914ZM16.1085 29.3426C16.8962 28.6534 17.5706 27.8046 18.1382 26.8111L16.4018 25.8189C15.9294 26.6454 15.3905 27.3133 14.7915 27.8374L16.1085 29.3426ZM18.1309 26.8237C18.7357 25.8002 19.2028 24.7268 19.53 23.605L17.61 23.045C17.3305 24.0032 16.9309 24.9231 16.4091 25.8063L18.1309 26.8237ZM19.5187 23.6412C19.8777 22.5641 20.1157 21.6051 20.2132 20.7768L18.2268 20.5432C18.151 21.1882 17.9556 22.0059 17.6213 23.0088L19.5187 23.6412ZM76.7023 17.93L75.7092 17.8132L75.5778 18.93H76.7023V17.93ZM73.3873 14.225L72.9812 15.1388L72.9913 15.1433L73.0015 15.1476L73.3873 14.225ZM64.1573 12.08L64.2591 11.0852L63.6363 11.0215L63.3069 11.5539L64.1573 12.08ZM56.3573 28.98L57.3041 29.302L57.3067 29.2942L56.3573 28.98ZM52.7173 45.425L53.7153 45.4903L53.7157 45.4815L52.7173 45.425ZM56.0323 52.9L56.694 53.6498L58.3289 52.2073L56.169 51.9094L56.0323 52.9ZM53.0423 53.615L53.179 52.6244L53.164 52.6223L53.1489 52.6207L53.0423 53.615ZM49.2723 51.6L49.9547 50.8689L49.9518 50.8662L49.2723 51.6ZM46.7373 46.335L45.7428 46.4397L45.7484 46.4926L45.7595 46.5445L46.7373 46.335ZM47.5823 36.91L48.5598 37.121L49.2765 33.8016L46.8752 36.2029L47.5823 36.91ZM47.0623 37.495L46.2815 36.8703L46.2717 36.8825L46.2623 36.895L47.0623 37.495ZM46.5423 37.95L46.0278 37.0925L45.8926 37.1736L45.7889 37.2925L46.5423 37.95ZM41.4073 42.565L41.7491 43.5048L41.8092 43.4829L41.866 43.4536L41.4073 42.565ZM37.3123 42.11L36.7576 42.9421L36.7674 42.9486L36.7773 42.9548L37.3123 42.11ZM35.1023 39.12L34.1078 39.2247L34.1103 39.2484L34.114 39.2721L35.1023 39.12ZM35.4273 36.195L36.393 36.455L36.4087 36.3964L36.4173 36.3364L35.4273 36.195ZM35.7523 34.44L34.7966 34.1459L34.786 34.1802L34.778 34.2151L35.7523 34.44ZM36.2723 32.815L37.221 33.1312L35.4636 32.2268L36.2723 32.815ZM35.1023 34.31L34.3341 33.6698L34.3177 33.6895L34.3023 33.71L35.1023 34.31ZM33.8023 36L33.016 35.3822L32.9895 35.416L32.9659 35.452L33.8023 36ZM31.0723 39.64L30.3111 38.9915L30.309 38.9941L31.0723 39.64ZM27.9523 42.955L28.5437 43.7614L28.5974 43.722L28.6455 43.6758L27.9523 42.955ZM25.3523 43.28L25.5857 42.3076L25.5772 42.3056L25.3523 43.28ZM22.2323 41.785L21.6031 42.5622L21.6119 42.5694L21.6209 42.5763L22.2323 41.785ZM20.9323 39.38L19.9371 39.2829L19.9348 39.3064L19.9336 39.3301L20.9323 39.38ZM22.1023 34.05L23.0487 34.3732L23.051 34.3662L22.1023 34.05ZM24.5073 28.525L25.3892 28.9967L25.3936 28.9883L24.5073 28.525ZM27.6923 23.52L28.4778 24.1389L28.4823 24.1332L28.4867 24.1274L27.6923 23.52ZM31.1373 19.75L30.5492 18.9413L30.5096 18.9701L30.473 19.0026L31.1373 19.75ZM34.9073 18.71L34.6026 19.6624L34.6379 19.6737L34.674 19.6824L34.9073 18.71ZM38.2873 20.4L37.6921 21.2036L37.7312 21.2325L37.7728 21.2575L38.2873 20.4ZM38.9373 20.855L38.3127 21.6359L38.3652 21.6779L38.4228 21.7125L38.9373 20.855ZM39.5873 21.245L39.0728 22.1025L39.8462 22.5665L40.3873 21.845L39.5873 21.245ZM40.3673 20.335L41.0745 21.0421L40.3673 20.335ZM41.2123 19.36L42.0123 19.96L42.029 19.9378L42.0444 19.9147L41.2123 19.36ZM41.7973 18.58L41.0902 17.8729L41.0582 17.905L41.0291 17.9398L41.7973 18.58ZM42.5773 17.8L43.2845 18.5071L43.3013 18.4903L43.3173 18.4727L42.5773 17.8ZM44.6573 17.475L44.9736 16.5263L44.9472 16.5175L44.9205 16.5102L44.6573 17.475ZM47.0623 18.97L47.7919 18.2861L47.7809 18.2743L47.7695 18.2629L47.0623 18.97ZM47.5823 21.05L48.4506 21.5461L48.4771 21.4998L48.4985 21.4508L47.5823 21.05ZM41.9923 32.815L41.032 32.5362L41.0308 32.5403L41.9923 32.815ZM41.7973 37.105L41.6012 38.0856L41.738 38.1129L41.8771 38.1018L41.7973 37.105ZM45.5023 34.05L44.6982 33.4556L44.6927 33.463L44.6874 33.4705L45.5023 34.05ZM47.6473 30.865L46.8104 30.3177L46.8029 30.3292L46.7957 30.3409L47.6473 30.865ZM49.8573 27.29L50.72 27.7957L50.7334 27.7729L50.7456 27.7494L49.8573 27.29ZM51.5473 23.91L50.6529 23.4628L50.649 23.4706L50.6452 23.4785L51.5473 23.91ZM52.7173 21.245L51.7957 20.8569L51.7842 20.8842L51.7744 20.9122L52.7173 21.245ZM54.7973 16.435L53.8931 16.008L53.8882 16.0184L53.8835 16.0289L54.7973 16.435ZM57.0073 11.82L57.9069 12.2569L58.6092 10.8109L57.0017 10.82L57.0073 11.82ZM38.0923 16.955L37.5277 16.1297L37.5097 16.142L37.4923 16.155L38.0923 16.955ZM36.4023 16.76L35.8723 17.608L35.9126 17.6332L35.9551 17.6544L36.4023 16.76ZM35.3623 16.045L34.6552 16.7521L34.7055 16.8024L34.7623 16.845L35.3623 16.045ZM34.4523 15.005L35.2417 14.3911L35.2035 14.3419L35.1595 14.2979L34.4523 15.005ZM33.2173 12.86L34.2021 12.6862L34.1947 12.6439L34.1836 12.6023L33.2173 12.86ZM34.0623 11.235L33.7089 10.2995L33.629 10.3297L33.5553 10.3731L34.0623 11.235ZM46.2823 7.985L46.1212 6.99806L46.2823 7.985ZM59.5423 7.075L59.5235 8.07482L60.0806 8.08533L60.3826 7.61712L59.5423 7.075ZM61.8823 3.63L62.6911 4.21817V4.21817L61.8823 3.63ZM63.8973 1.29L63.3732 0.438341L63.2881 0.490734L63.215 0.558943L63.8973 1.29ZM65.7173 1.225L65.2945 2.13118L65.3088 2.13789L65.3234 2.14414L65.7173 1.225ZM67.5373 2.33L68.2445 1.62289L68.2022 1.58061L68.1552 1.54368L67.5373 2.33ZM67.9273 2.655L68.413 1.78084L68.394 1.77029L68.3746 1.76057L67.9273 2.655ZM68.9023 3.435L68.1431 4.08579V4.08579L68.9023 3.435ZM69.4873 4.28L68.5929 4.72721L68.616 4.77335L68.6437 4.81688L69.4873 4.28ZM69.3573 5.645L70.019 6.39483L70.0621 6.35675L70.1006 6.31396L69.3573 5.645ZM67.4723 7.595L66.6915 6.9703L65.5752 8.36564L67.3483 8.58728L67.4723 7.595ZM71.1773 8.245L70.944 9.21738L70.9625 9.22184L70.9812 9.22558L71.1773 8.245ZM74.0373 9.025L74.435 8.10744L74.4093 8.09632L74.383 8.08666L74.0373 9.025ZM76.9623 12.08L76.0474 12.4836L76.0523 12.4948L76.0575 12.5058L76.9623 12.08ZM77.6773 14.16L76.6968 14.3561L76.703 14.3871L76.7111 14.4177L77.6773 14.16ZM36.5323 25.73L37.3516 26.3035L37.3938 26.2431L37.4268 26.1772L36.5323 25.73ZM36.4673 23.65L35.4912 23.8669L35.5179 23.9871L35.5729 24.0972L36.4673 23.65ZM35.7523 22.87L36.0686 21.9213L35.9146 21.87H35.7523V22.87ZM34.5173 23.52L33.8447 22.7801L33.8044 22.8167L33.7683 22.8574L34.5173 23.52ZM31.7873 27.03L30.9599 26.4685L31.7873 27.03ZM29.5123 30.93L28.6179 30.4828L28.6152 30.4883L29.5123 30.93ZM27.3673 36.845L26.3681 36.8066L26.2809 39.0743L28.0133 37.6084L27.3673 36.845ZM29.3173 34.96L30.0444 35.6466L30.0536 35.6368L30.0626 35.6268L29.3173 34.96ZM31.9173 31.905L32.6901 32.5397L32.6926 32.5367L31.9173 31.905ZM34.4523 28.59L33.6523 27.99L33.6442 28.0009L33.6363 28.012L34.4523 28.59ZM77.6955 18.0468C77.8198 16.9903 77.4675 16.0352 76.7488 15.232C76.057 14.4587 75.0332 13.8293 73.7731 13.3024L73.0015 15.1476C74.1249 15.6173 74.8452 16.1038 75.2584 16.5655C75.6447 16.9973 75.7582 17.3964 75.7092 17.8132L77.6955 18.0468ZM73.7935 13.3112C71.3217 12.2126 68.1307 11.4811 64.2591 11.0852L64.0556 13.0748C67.8107 13.4589 70.773 14.1574 72.9812 15.1388L73.7935 13.3112ZM63.3069 11.5539C60.0994 16.7387 57.4673 22.4439 55.408 28.6658L57.3067 29.2942C59.3207 23.2094 61.8886 17.648 65.0078 12.6061L63.3069 11.5539ZM55.4106 28.658C53.2269 35.078 51.9858 40.6535 51.7189 45.3685L53.7157 45.4815C53.9689 41.0098 55.1544 35.622 57.3041 29.302L55.4106 28.658ZM51.7195 45.3597C51.5637 47.7403 51.7554 49.7131 52.4045 51.1767C53.0848 52.7107 54.2664 53.6659 55.8957 53.8906L56.169 51.9094C55.2849 51.7874 54.6574 51.3235 54.2327 50.3659C53.7768 49.3377 53.5676 47.7464 53.7152 45.4903L51.7195 45.3597ZM55.3707 52.1502C54.9123 52.5546 54.2371 52.7703 53.179 52.6244L52.9057 54.6056C54.3609 54.8063 55.679 54.5454 56.694 53.6498L55.3707 52.1502ZM53.1489 52.6207C52.2295 52.5222 51.1659 51.9995 49.9547 50.8689L48.59 52.3311C49.9788 53.6272 51.4285 54.4478 52.9358 54.6093L53.1489 52.6207ZM49.9518 50.8662C48.9956 49.9809 48.2143 48.455 47.7151 46.1255L45.7595 46.5445C46.3004 49.0684 47.2091 51.0524 48.5929 52.3338L49.9518 50.8662ZM47.7318 46.2303C47.4874 43.9082 47.7476 40.8828 48.5598 37.121L46.6049 36.699C45.7704 40.5639 45.4673 43.8218 45.7428 46.4397L47.7318 46.2303ZM46.8752 36.2029C46.6727 36.4055 46.4749 36.6285 46.2815 36.8703L47.8432 38.1197C47.9964 37.9282 48.1453 37.7612 48.2895 37.6171L46.8752 36.2029ZM46.2623 36.895C46.2217 36.9491 46.1518 37.0182 46.0278 37.0925L47.0568 38.8075C47.3663 38.6218 47.6429 38.3875 47.8623 38.095L46.2623 36.895ZM45.7889 37.2925C43.7212 39.6617 42.1133 41.0753 40.9487 41.6764L41.866 43.4536C43.388 42.6681 45.2035 41.0049 47.2958 38.6075L45.7889 37.2925ZM41.0656 41.6252C39.9306 42.0379 38.8891 41.9249 37.8474 41.2652L36.7773 42.9548C38.3356 43.9417 40.0241 44.1321 41.7491 43.5048L41.0656 41.6252ZM37.867 41.278C36.7108 40.5071 36.2073 39.7259 36.0907 38.9679L34.114 39.2721C34.344 40.7675 35.3139 41.9795 36.7576 42.9421L37.867 41.278ZM36.0968 39.0153C36.0272 38.3533 36.1095 37.5078 36.393 36.455L34.4617 35.935C34.1385 37.1355 34.0042 38.2401 34.1078 39.2247L36.0968 39.0153ZM36.4173 36.3364C36.5002 35.7561 36.6035 35.199 36.7267 34.6649L34.778 34.2151C34.6412 34.8076 34.5278 35.4206 34.4374 36.0536L36.4173 36.3364ZM36.7081 34.7341C36.8793 34.1776 37.0503 33.6433 37.221 33.1312L35.3237 32.4988C35.1477 33.0266 34.972 33.5757 34.7966 34.1459L36.7081 34.7341ZM35.4636 32.2268C35.1316 32.6833 34.7554 33.1643 34.3341 33.6698L35.8706 34.9502C36.316 34.4157 36.7198 33.9 37.0811 33.4032L35.4636 32.2268ZM34.3023 33.71C33.9176 34.223 33.4889 34.7803 33.016 35.3822L34.5887 36.6178C35.0691 36.0063 35.5071 35.437 35.9023 34.91L34.3023 33.71ZM32.9659 35.452C32.166 36.6728 31.2812 37.8527 30.3111 38.9915L31.8336 40.2885C32.8568 39.0873 33.792 37.8405 34.6388 36.548L32.9659 35.452ZM30.309 38.9941C29.379 40.0931 28.3626 41.1732 27.2592 42.2342L28.6455 43.6758C29.7954 42.5701 30.859 41.4402 31.8357 40.2859L30.309 38.9941ZM27.361 42.1486C27.029 42.3921 26.4976 42.5265 25.5857 42.3076L25.119 44.2524C26.3737 44.5535 27.5757 44.4713 28.5437 43.7614L27.361 42.1486ZM25.5772 42.3056C24.597 42.0794 23.6879 41.646 22.8438 40.9937L21.6209 42.5763C22.6835 43.3974 23.8543 43.9606 25.1275 44.2544L25.5772 42.3056ZM22.8615 41.0078C22.1057 40.3959 21.9089 39.8735 21.9311 39.4299L19.9336 39.3301C19.8691 40.6198 20.539 41.7008 21.6031 42.5622L22.8615 41.0078ZM21.9276 39.4771C22.0931 37.7813 22.4657 36.0804 23.0487 34.3731L21.156 33.7269C20.5256 35.573 20.1183 37.4254 19.9371 39.2829L21.9276 39.4771ZM23.051 34.3662C23.6381 32.6049 24.4165 30.8151 25.3891 28.9967L23.6256 28.0533C22.6049 29.9616 21.7799 31.8551 21.1537 33.7338L23.051 34.3662ZM25.3936 28.9883C26.3666 27.1269 27.3957 25.5124 28.4778 24.1389L26.9069 22.9011C25.7357 24.3876 24.6415 26.1098 23.6211 28.0617L25.3936 28.9883ZM28.4867 24.1274C29.5815 22.6958 30.6872 21.4881 31.8017 20.4974L30.473 19.0026C29.2475 20.0919 28.0565 21.3975 26.898 22.9125L28.4867 24.1274ZM31.7255 20.5587C33.0443 19.5996 33.9617 19.4573 34.6026 19.6624L35.2121 17.7576C33.6863 17.2693 32.0903 17.8204 30.5492 18.9413L31.7255 20.5587ZM34.674 19.6824C35.5931 19.903 36.5986 20.3935 37.6921 21.2036L38.8826 19.5964C37.6361 18.6732 36.3883 18.037 35.1407 17.7376L34.674 19.6824ZM37.7728 21.2575C37.9476 21.3623 38.1276 21.4878 38.3127 21.6359L39.562 20.0741C39.3138 19.8755 39.0604 19.6977 38.8018 19.5425L37.7728 21.2575ZM38.4228 21.7125C38.6395 21.8425 38.8562 21.9725 39.0728 22.1025L40.1018 20.3875C39.8852 20.2575 39.6685 20.1275 39.4518 19.9975L38.4228 21.7125ZM40.3873 21.845C40.6238 21.5297 40.8532 21.2634 41.0745 21.0421L39.6602 19.6279C39.3615 19.9266 39.0709 20.267 38.7873 20.645L40.3873 21.845ZM41.0745 21.0421C41.4116 20.705 41.7242 20.3441 42.0123 19.96L40.4123 18.76C40.1804 19.0692 39.9298 19.3584 39.6602 19.6279L41.0745 21.0421ZM42.0444 19.9147C42.1964 19.6866 42.3698 19.4551 42.5656 19.2202L41.0291 17.9398C40.7915 18.2249 40.5749 18.5134 40.3803 18.8053L42.0444 19.9147ZM42.5045 19.2871C42.7645 19.0271 43.0244 18.7671 43.2845 18.5071L41.8702 17.0929C41.6102 17.3529 41.3502 17.6129 41.0902 17.8729L42.5045 19.2871ZM43.3173 18.4727C43.3772 18.4067 43.5902 18.2205 44.3942 18.4398L44.9205 16.5102C43.8178 16.2095 42.6441 16.2399 41.8374 17.1273L43.3173 18.4727ZM44.3411 18.4237C45.1005 18.6768 45.7692 19.091 46.3552 19.6771L47.7695 18.2629C46.9689 17.4623 46.0342 16.8799 44.9736 16.5263L44.3411 18.4237ZM46.3328 19.6539C46.5784 19.9159 46.6757 20.1167 46.7097 20.2525C46.7394 20.3715 46.7348 20.4923 46.6662 20.6492L48.4985 21.4508C48.7332 20.9143 48.7936 20.3418 48.65 19.7675C48.5106 19.2099 48.1963 18.7174 47.7919 18.2861L46.3328 19.6539ZM46.7141 20.5539C43.7618 25.7204 41.8471 29.7285 41.032 32.5362L42.9527 33.0938C43.6976 30.5281 45.5095 26.693 48.4506 21.5461L46.7141 20.5539ZM41.0308 32.5403C40.636 33.9221 40.3976 35.0538 40.3596 35.8896C40.341 36.2989 40.3646 36.7335 40.5076 37.1149C40.6664 37.5383 41.0108 37.9675 41.6012 38.0856L41.9935 36.1244C42.2589 36.1775 42.3677 36.3792 42.3802 36.4126C42.3818 36.4167 42.3707 36.3873 42.3625 36.3079C42.3545 36.2305 42.3511 36.1231 42.3576 35.9804C42.3846 35.3862 42.5687 34.4379 42.9539 33.0897L41.0308 32.5403ZM41.8771 38.1018C42.6986 38.0361 43.4677 37.6287 44.1723 37.0478C44.8821 36.4625 45.5955 35.6445 46.3173 34.6295L44.6874 33.4705C44.0225 34.4055 43.4251 35.0716 42.8999 35.5047C42.3695 35.9421 41.9794 36.0872 41.7176 36.1082L41.8771 38.1018ZM46.3065 34.6444C47.0611 33.6235 47.7918 32.5383 48.499 31.3891L46.7957 30.3409C46.1162 31.4451 45.4169 32.4832 44.6982 33.4556L46.3065 34.6444ZM48.4843 31.4122C49.2306 30.2709 49.9758 29.0653 50.72 27.7957L48.9946 26.7843C48.2656 28.028 47.5374 29.2058 46.8104 30.3177L48.4843 31.4122ZM50.7456 27.7494C51.3991 26.4859 51.9673 25.3497 52.4495 24.3415L50.6452 23.4785C50.1741 24.4636 49.6156 25.5807 48.9691 26.8306L50.7456 27.7494ZM52.4418 24.3572C52.9723 23.2962 53.3816 22.3675 53.6603 21.5778L51.7744 20.9122C51.5331 21.5959 51.1624 22.4438 50.6529 23.4628L52.4418 24.3572ZM53.639 21.6331C54.3299 19.9922 55.0206 18.3949 55.7112 16.8411L53.8835 16.0289C53.1874 17.5951 52.4915 19.2045 51.7957 20.8569L53.639 21.6331ZM55.7016 16.862C56.4367 15.3052 57.1718 13.7702 57.9069 12.2569L56.1078 11.3831C55.3695 12.9031 54.6313 14.4448 53.8931 16.008L55.7016 16.862ZM57.0017 10.82C49.188 10.8642 42.6732 12.6091 37.5277 16.1297L38.657 17.7803C43.3915 14.5409 49.4867 12.8625 57.013 12.82L57.0017 10.82ZM37.4923 16.155C37.5807 16.0887 37.6329 16.1203 37.5245 16.1078C37.4035 16.0939 37.1853 16.0334 36.8496 15.8656L35.9551 17.6544C36.3994 17.8766 36.8529 18.0436 37.2952 18.0947C37.7502 18.1471 38.2573 18.0813 38.6923 17.755L37.4923 16.155ZM36.9323 15.912C36.6111 15.7112 36.2877 15.489 35.9623 15.245L34.7623 16.845C35.1303 17.121 35.5003 17.3755 35.8723 17.608L36.9323 15.912ZM36.0695 15.3379C35.7994 15.0679 35.5233 14.7531 35.2417 14.3911L33.663 15.6189C33.9881 16.0369 34.3186 16.4155 34.6552 16.7521L36.0695 15.3379ZM35.1595 14.2979C34.5665 13.705 34.2869 13.1664 34.2021 12.6862L32.2326 13.0338C32.4078 14.0269 32.9515 14.9184 33.7452 15.7121L35.1595 14.2979ZM34.1836 12.6023C34.1541 12.4919 34.1722 12.4537 34.1858 12.4276C34.212 12.3773 34.3009 12.2548 34.5694 12.0969L33.5553 10.3731C33.0871 10.6485 32.6669 11.0135 32.4114 11.5049C32.1433 12.0204 32.1072 12.5781 32.2511 13.1177L34.1836 12.6023ZM34.4157 12.1705C38.2516 10.7214 42.2603 9.65489 46.4435 8.97193L46.1212 6.99806C41.811 7.70177 37.6731 8.80195 33.7089 10.2995L34.4157 12.1705ZM46.4435 8.97193C50.6268 8.28894 54.9864 7.98921 59.5235 8.07482L59.5612 6.07518C54.9116 5.98745 50.4312 6.29439 46.1212 6.99806L46.4435 8.97193ZM60.3826 7.61712C61.2425 6.28434 62.0118 5.15224 62.6911 4.21817L61.0736 3.04183C60.3663 4.01442 59.5755 5.17899 58.702 6.53287L60.3826 7.61712ZM62.6911 4.21817C63.3582 3.30083 63.9885 2.57282 64.5797 2.02106L63.215 0.558943C62.5062 1.22051 61.7931 2.0525 61.0736 3.04183L62.6911 4.21817ZM64.4214 2.14165C64.6708 1.98821 64.9187 1.95581 65.2945 2.13118L66.1402 0.318815C65.216 -0.11248 64.2506 -0.101545 63.3732 0.438341L64.4214 2.14165ZM65.3234 2.14414C65.8378 2.36461 66.3702 2.68467 66.9195 3.11632L68.1552 1.54368C67.4912 1.02199 66.8102 0.605389 66.1113 0.305853L65.3234 2.14414ZM66.8302 3.0371C66.9981 3.20492 67.2309 3.42481 67.4801 3.54942L68.3746 1.76057C68.393 1.76981 68.4064 1.77764 68.4143 1.78242C68.4223 1.7873 68.4268 1.79047 68.4277 1.79108C68.4288 1.79189 68.4216 1.78685 68.405 1.77303C68.371 1.74466 68.3183 1.69674 68.2445 1.62289L66.8302 3.0371ZM67.4417 3.52915C67.74 3.69488 67.9688 3.88245 68.1431 4.08579L69.6616 2.78421C69.3159 2.38088 68.8947 2.04845 68.413 1.78084L67.4417 3.52915ZM68.1431 4.08579C68.3682 4.3484 68.5102 4.56182 68.5929 4.72721L70.3818 3.83279C70.2045 3.47818 69.9565 3.12826 69.6616 2.7842L68.1431 4.08579ZM68.6437 4.81688C68.6754 4.86665 68.6846 4.8949 68.6866 4.90224C68.6881 4.90745 68.6854 4.89933 68.6869 4.88394C68.6883 4.86891 68.6919 4.86549 68.6861 4.87751C68.6793 4.89141 68.6601 4.92487 68.6141 4.97603L70.1006 6.31396C70.3993 5.98212 70.6308 5.567 70.6778 5.07355C70.7252 4.57627 70.5733 4.12386 70.331 3.74312L68.6437 4.81688ZM68.6957 4.89516C67.9233 5.57674 67.2533 6.26804 66.6915 6.9703L68.2532 8.21969C68.7314 7.62196 69.3181 7.01325 70.019 6.39483L68.6957 4.89516ZM67.3483 8.58728C68.707 8.75711 69.9044 8.96788 70.944 9.21738L71.4107 7.27261C70.2836 7.00211 69.011 6.77955 67.5964 6.60272L67.3483 8.58728ZM70.9812 9.22558C72.0261 9.43455 72.9276 9.68184 73.6916 9.96334L74.383 8.08666C73.5005 7.76149 72.4953 7.48878 71.3735 7.26442L70.9812 9.22558ZM73.6397 9.94256C74.6769 10.392 75.4841 11.2068 76.0474 12.4836L77.8773 11.6764C77.1406 10.0065 75.9978 8.78465 74.435 8.10744L73.6397 9.94256ZM76.0575 12.5058C76.3772 13.1852 76.5858 13.8011 76.6968 14.3561L78.6579 13.9639C78.5089 13.2189 78.2408 12.4481 77.8672 11.6542L76.0575 12.5058ZM76.7111 14.4177C76.8628 14.9866 76.9373 15.55 76.9373 16.11H78.9373C78.9373 15.37 78.8385 14.6334 78.6436 13.9023L76.7111 14.4177ZM76.9373 16.11C76.9373 16.6349 76.8426 16.8523 76.8011 16.9135C76.7891 16.9313 76.79 16.9245 76.8018 16.9187C76.809 16.9151 76.7851 16.93 76.7023 16.93V18.93C77.3978 18.93 78.0389 18.6513 78.4561 18.0365C78.8262 17.491 78.9373 16.7985 78.9373 16.11H76.9373ZM37.4268 26.1772C37.5194 25.992 37.5836 25.778 37.6325 25.5825L35.6922 25.0975C35.675 25.1663 35.6602 25.2165 35.6487 25.2513C35.6364 25.2882 35.6318 25.2951 35.6379 25.2828L37.4268 26.1772ZM37.6325 25.5825C37.6993 25.3152 37.7273 25.0368 37.7273 24.755H35.7273C35.7273 24.9066 35.712 25.0181 35.6922 25.0975L37.6325 25.5825ZM37.7273 24.755C37.7273 24.2108 37.605 23.6892 37.3618 23.2028L35.5729 24.0972C35.6764 24.3041 35.7273 24.5192 35.7273 24.755H37.7273ZM37.4435 23.4331C37.278 22.6882 36.78 22.1584 36.0686 21.9213L35.4361 23.8187C35.4677 23.8292 35.4837 23.8382 35.489 23.8415C35.4938 23.8445 35.4914 23.8437 35.4864 23.8382C35.4814 23.8327 35.4791 23.8284 35.4795 23.8291C35.4801 23.8304 35.4855 23.8414 35.4912 23.8669L37.4435 23.4331ZM35.7523 21.87C35.0167 21.87 34.3652 22.3069 33.8447 22.7801L35.19 24.2599C35.3879 24.0801 35.5408 23.9745 35.6493 23.9174C35.7586 23.8599 35.7872 23.87 35.7523 23.87V21.87ZM33.7683 22.8574C32.7441 24.0152 31.8078 25.2189 30.9599 26.4685L32.6148 27.5915C33.4136 26.4144 34.2972 25.2781 35.2663 24.1826L33.7683 22.8574ZM30.9599 26.4685C30.1103 27.7204 29.3299 29.0588 28.6179 30.4828L30.4068 31.3772C31.0815 30.0278 31.8177 28.7662 32.6148 27.5915L30.9599 26.4685ZM28.6152 30.4883C27.9128 31.9151 27.3704 33.1478 26.996 34.1803C26.6281 35.195 26.3958 36.0863 26.3681 36.8066L28.3666 36.8834C28.3822 36.4771 28.5291 35.8192 28.8762 34.8622C29.2168 33.923 29.7252 32.7616 30.4095 31.3717L28.6152 30.4883ZM28.0133 37.6084C28.6146 37.0996 29.2925 36.4427 30.0444 35.6466L28.5903 34.2734C27.8689 35.0373 27.2467 35.6371 26.7214 36.0816L28.0133 37.6084ZM30.0626 35.6268C30.8116 34.7896 31.6878 33.7598 32.6901 32.5397L31.1446 31.2703C30.1535 32.4768 29.2964 33.4837 28.5721 34.2932L30.0626 35.6268ZM32.6926 32.5367C33.6576 31.3523 34.5166 30.2293 35.2684 29.168L33.6363 28.012C32.9147 29.0307 32.0837 30.1177 31.1421 31.2733L32.6926 32.5367ZM35.2523 29.19C36.0375 28.1431 36.7374 27.1808 37.3516 26.3035L35.7131 25.1565C35.1139 26.0125 34.4272 26.9569 33.6523 27.99L35.2523 29.19ZM96.4857 26.64L96.9329 25.7456L96.6374 25.5978L96.3119 25.6552L96.4857 26.64ZM96.9407 26.835L97.2569 25.8863L97.2569 25.8863L96.9407 26.835ZM97.3307 27.03L98.0378 26.3229L97.9678 26.2529L97.8854 26.1979L97.3307 27.03ZM97.6557 27.355L96.9486 28.0621L97.0186 28.1321L97.101 28.1871L97.6557 27.355ZM97.9807 27.615L98.8382 27.1005L98.7749 26.9949L98.6878 26.9079L97.9807 27.615ZM98.1107 28.07L99.0051 28.5172L98.1107 28.07ZM96.1607 31.84L95.2776 31.3708L95.2718 31.3817L95.2663 31.3928L96.1607 31.84ZM93.6907 36.39L94.5512 36.8995L94.5561 36.891L93.6907 36.39ZM87.8407 43.085L88.2879 43.9794L88.3223 43.9622L88.3552 43.9425L87.8407 43.085ZM85.0457 43.41L84.8032 44.3801L84.8684 44.3965L84.9353 44.4039L85.0457 43.41ZM83.5507 42.955L83.1793 43.8835L83.194 43.8894L83.209 43.8948L83.5507 42.955ZM82.1857 42.24L82.7226 41.3963L82.6956 41.3792L82.6676 41.3638L82.1857 42.24ZM80.6907 40.55L81.6713 40.3539L81.6656 40.3255L81.6583 40.2976L80.6907 40.55ZM81.0157 36L81.9894 36.2279L81.9912 36.2202L81.9929 36.2124L81.0157 36ZM81.7307 33.075L80.774 32.7838L80.7698 32.7978L80.7659 32.8119L81.7307 33.075ZM82.6407 30.085L81.6962 29.7565L81.6898 29.775L81.684 29.7938L82.6407 30.085ZM83.6157 27.42L82.6941 27.0319L82.6887 27.0447L82.6837 27.0576L83.6157 27.42ZM84.5257 25.275L85.4448 25.6689L83.8186 24.5679L84.5257 25.275ZM81.8607 28.265L81.0828 27.6367L81.0798 27.6403L81.8607 28.265ZM79.2607 32.1L80.1044 32.6369L80.1138 32.6221L80.1226 32.607L79.2607 32.1ZM76.7257 36.585L75.8313 36.1378L75.8263 36.1478L75.8215 36.158L76.7257 36.585ZM74.7107 41.395L73.7724 41.0493L73.767 41.064L73.762 41.0788L74.7107 41.395ZM73.4757 41.85L73.5997 40.8577L73.538 40.85H73.4757V41.85ZM71.4607 41.2L70.9199 42.0412L70.9366 42.0519L70.9537 42.0619L71.4607 41.2ZM70.4207 39.64H69.4207V39.7064L69.4295 39.7722L70.4207 39.64ZM71.0057 35.805L70.0329 35.5734L70.0313 35.5801L71.0057 35.805ZM71.5907 33.14L70.6206 32.8975L70.6148 32.9205L70.6101 32.9439L71.5907 33.14ZM72.2407 30.605L73.2079 30.8595L73.2108 30.8475L72.2407 30.605ZM72.8257 28.525L73.7744 28.8412L72.8257 28.525ZM73.2157 27.355L74.1644 27.6712L72.4963 26.6604L73.2157 27.355ZM68.3407 34.44L69.1852 34.9755L69.1943 34.9612L69.2029 34.9465L68.3407 34.44ZM65.1557 39.705L64.2888 39.2065L64.2847 39.2137L65.1557 39.705ZM62.3607 44.84L63.2182 45.3545L63.2329 45.3301L63.2461 45.3048L62.3607 44.84ZM60.7357 45.425L60.5396 46.4056L60.6107 46.4198L60.6831 46.4236L60.7357 45.425ZM59.5657 45.165L59.2495 46.1137L59.2859 46.1258L59.3232 46.1351L59.5657 45.165ZM58.4607 44.645L58.9907 43.797L58.9504 43.7718L58.9079 43.7506L58.4607 44.645ZM57.2907 43.28L56.2944 43.1946L56.2841 43.3138L56.3023 43.4321L57.2907 43.28ZM60.0207 31.645L59.0754 31.3184L59.0712 31.3314L60.0207 31.645ZM62.3607 25.47L61.4488 25.0596L61.4445 25.0692L61.4404 25.0789L62.3607 25.47ZM64.7007 21.18L65.5229 21.7492L65.5363 21.7299L65.5487 21.71L64.7007 21.18ZM66.0007 20.79L66.3169 19.8413L66.2269 19.8113L66.1329 19.7988L66.0007 20.79ZM66.8457 21.05L66.571 22.0115H66.571L66.8457 21.05ZM67.7557 21.44L68.3369 20.6263L68.2958 20.5969L68.2518 20.5718L67.7557 21.44ZM68.5357 22.025L67.911 22.8059L67.9449 22.833L67.981 22.857L68.5357 22.025ZM69.1857 22.61L68.4048 23.2347L68.423 23.2574L68.4424 23.279L69.1857 22.61ZM69.5757 23.715L70.3566 24.3397L70.4414 24.2337L70.4949 24.1089L69.5757 23.715ZM67.3007 27.485L68.1749 27.9706L68.1769 27.9669L67.3007 27.485ZM64.7657 33.075L63.8309 32.7198L65.6069 33.6158L64.7657 33.075ZM66.1307 30.93L65.2922 30.385L65.2852 30.396L66.1307 30.93ZM68.0157 28.07L67.1837 27.5153H67.1837L68.0157 28.07ZM70.0957 25.015L70.9166 25.5861L70.9223 25.5779L70.9278 25.5697L70.0957 25.015ZM72.2407 22.09L73.018 22.7192L73.0471 22.6832L73.0728 22.6447L72.2407 22.09ZM75.5557 18.125L74.9557 17.325L74.9497 17.3296L75.5557 18.125ZM77.4407 17.93L77.1079 18.873L77.1648 18.8931L77.2238 18.9062L77.4407 17.93ZM78.5457 18.385L78.0157 19.233L78.0753 19.2703L78.1396 19.2988L78.5457 18.385ZM79.5207 19.1L78.7614 19.7508L78.8298 19.8305L78.9133 19.8944L79.5207 19.1ZM80.4307 20.79L81.3251 21.2372L81.3783 21.1308L81.4051 21.0149L80.4307 20.79ZM80.3007 21.18L79.3306 20.9375L79.3007 21.0569V21.18H80.3007ZM80.1707 21.83L81.0992 22.2014L81.1101 22.1741L81.1194 22.1462L80.1707 21.83ZM79.8457 22.61L78.9266 22.2161L78.9102 22.2543L78.897 22.2938L79.8457 22.61ZM79.5207 23.455L78.6016 23.0611L78.5742 23.1249L78.5559 23.1919L79.5207 23.455ZM79.0657 24.82L78.1372 24.4486L78.1207 24.49L78.1079 24.5327L79.0657 24.82ZM78.7407 26.055L79.6727 26.4174L79.7003 26.3464L79.7169 26.2719L78.7407 26.055ZM78.3507 27.485L77.3806 27.7275L77.8089 29.441L79.0578 28.1921L78.3507 27.485ZM78.6107 27.095L77.8107 26.495L77.7566 26.5671L77.7163 26.6478L78.6107 27.095ZM79.1307 26.445L79.8989 27.0852L79.9375 27.0389L79.9703 26.9883L79.1307 26.445ZM80.8207 24.105L80.0398 23.4803L80.0358 23.4854L80.8207 24.105ZM83.1607 21.115L82.386 20.4826L82.3769 20.4938L82.3681 20.5053L83.1607 21.115ZM87.6457 16.63L87.1267 15.7752L87.1019 15.7903L87.078 15.8068L87.6457 16.63ZM91.1557 17.41L90.4111 18.0775L90.4293 18.0978L90.4486 18.1171L91.1557 17.41ZM92.0007 18.45L91.1527 18.98L91.1925 19.0437L91.2414 19.1008L92.0007 18.45ZM92.5207 19.36L91.5592 19.6347L91.5766 19.6957L91.6016 19.7539L92.5207 19.36ZM92.1957 21.635L93.0781 22.1056L93.0815 22.099L92.1957 21.635ZM91.0907 24.04L92.0098 24.4339L92.0131 24.4263L92.0163 24.4186L91.0907 24.04ZM89.7257 27.29L88.8017 26.9076L88.796 26.9214L88.7907 26.9353L89.7257 27.29ZM88.2957 30.995L87.365 30.6293L87.3614 30.6385L87.358 30.6477L88.2957 30.995ZM87.0607 34.57L88.0077 34.8913L88.0103 34.8837L88.0127 34.876L87.0607 34.57ZM85.7607 39.77L84.7616 39.7284L84.6872 41.5144L86.2481 40.6432L85.7607 39.77ZM90.9607 34.31L90.1287 33.7553L90.1188 33.77L90.1095 33.7851L90.9607 34.31ZM93.3007 30.54L92.4459 30.021L92.439 30.0324L92.4325 30.0439L93.3007 30.54ZM95.3807 26.965L96.2549 27.4506L96.3807 27.2241V26.965H95.3807ZM95.3807 26.835L95.2069 25.8502L94.3807 25.996V26.835H95.3807ZM96.0385 27.5344C96.2383 27.6343 96.4355 27.7207 96.6245 27.7837L97.2569 25.8863C97.186 25.8627 97.0798 25.819 96.9329 25.7456L96.0385 27.5344ZM96.6245 27.7837C96.6593 27.7953 96.7098 27.8179 96.776 27.8621L97.8854 26.1979C97.6916 26.0687 97.4821 25.9614 97.2569 25.8863L96.6245 27.7837ZM96.6236 27.7371C96.7536 27.8671 96.8619 27.9754 96.9486 28.0621L98.3628 26.6479C98.2761 26.5612 98.1678 26.4529 98.0378 26.3229L96.6236 27.7371ZM97.101 28.1871C97.1904 28.2466 97.2441 28.2926 97.2736 28.3221L98.6878 26.9079C98.5439 26.764 98.3811 26.6367 98.2104 26.5229L97.101 28.1871ZM97.1232 28.1295C97.1667 28.202 97.1615 28.2091 97.1492 28.166C97.1422 28.1416 97.127 28.0804 97.127 27.9928C97.127 27.9024 97.1435 27.7682 97.2163 27.6228L99.0051 28.5172C99.1908 28.1458 99.1219 27.7904 99.0722 27.6165C99.0166 27.4217 98.9247 27.2447 98.8382 27.1005L97.1232 28.1295ZM97.2163 27.6228C96.6574 28.7406 96.0113 29.9898 95.2776 31.3708L97.0438 32.3092C97.7835 30.9169 98.4374 29.6528 99.0051 28.5172L97.2163 27.6228ZM95.2663 31.3928C94.5838 32.7577 93.7706 34.2561 92.8253 35.889L94.5561 36.891C95.5175 35.2305 96.3509 33.6956 97.0551 32.2872L95.2663 31.3928ZM92.8302 35.8805C90.9141 39.1167 89.0676 41.1827 87.3262 42.2275L88.3552 43.9425C90.5138 42.6473 92.5673 40.25 94.5512 36.8995L92.8302 35.8805ZM87.3935 42.1906C86.9403 42.4172 86.2271 42.5351 85.1561 42.4161L84.9353 44.4039C86.2044 44.5449 87.3545 44.4462 88.2879 43.9794L87.3935 42.1906ZM85.2882 42.4399C84.7999 42.3178 84.3348 42.1761 83.8924 42.0152L83.209 43.8948C83.7199 44.0806 84.2515 44.2422 84.8032 44.3801L85.2882 42.4399ZM83.9221 42.0265C83.557 41.8805 83.1574 41.673 82.7226 41.3963L81.6488 43.0837C82.1674 43.4136 82.6778 43.6829 83.1793 43.8835L83.9221 42.0265ZM82.6676 41.3638C81.9299 40.958 81.7197 40.5959 81.6713 40.3539L79.7101 40.7461C79.9217 41.8041 80.7082 42.5686 81.7038 43.1162L82.6676 41.3638ZM81.6583 40.2976C81.4635 39.5507 81.5191 38.2375 81.9894 36.2279L80.042 35.7721C79.559 37.8358 79.3979 39.556 79.7231 40.8024L81.6583 40.2976ZM81.9929 36.2124C82.206 35.2322 82.4402 34.2741 82.6955 33.3381L80.7659 32.8119C80.5012 33.7825 80.2588 34.7744 80.0385 35.7876L81.9929 36.2124ZM82.6874 33.3662C82.69 33.3576 82.7132 33.2812 82.7158 33.2727C82.732 33.2195 82.7281 33.2325 82.7443 33.1793C82.7604 33.1261 82.7565 33.139 82.7727 33.0858C82.7861 33.0417 82.7877 33.0365 82.8011 32.9924C82.8146 32.9483 82.8161 32.9431 82.8296 32.899C82.843 32.8549 82.8446 32.8496 82.858 32.8055C82.8714 32.7614 82.873 32.7562 82.8864 32.7121C82.8999 32.668 82.9015 32.6628 82.9149 32.6187C82.9283 32.5746 82.9299 32.5693 82.9433 32.5252C82.9567 32.4811 82.9583 32.4759 82.9718 32.4318C82.9852 32.3877 82.9868 32.3825 83.0002 32.3383C83.0136 32.2942 83.0152 32.289 83.0286 32.2449C83.0421 32.2008 83.0436 32.1956 83.0571 32.1515C83.0705 32.1074 83.0721 32.1021 83.0855 32.058C83.0989 32.0139 83.1005 32.0087 83.1139 31.9646C83.1274 31.9205 83.129 31.9153 83.1424 31.8712C83.2312 31.5795 83.2811 31.4153 83.3699 31.1237C83.4587 30.832 83.5086 30.6679 83.5974 30.3762L81.684 29.7938C81.6706 29.8379 81.669 29.8432 81.6556 29.8873C81.6422 29.9314 81.6406 29.9366 81.6272 29.9807C81.6137 30.0248 81.6121 30.03 81.5987 30.0742C81.5853 30.1183 81.5837 30.1235 81.5703 30.1676C81.5569 30.2117 81.5553 30.2169 81.5418 30.261C81.5284 30.3051 81.5268 30.3104 81.5134 30.3545C81.5 30.3986 81.4984 30.4038 81.485 30.4479C81.4715 30.492 81.47 30.4972 81.4565 30.5413C81.4431 30.5854 81.4415 30.5907 81.4281 30.6348C81.4147 30.6789 81.4131 30.6841 81.3997 30.7282C81.3862 30.7723 81.3846 30.7775 81.3712 30.8217C81.3578 30.8658 81.3562 30.871 81.3428 30.9151C81.3294 30.9592 81.3278 30.9644 81.3143 31.0085C81.3009 31.0526 81.2993 31.0579 81.2859 31.102C81.2725 31.1461 81.2709 31.1513 81.2575 31.1954C81.244 31.2395 81.2425 31.2447 81.229 31.2888C81.1403 31.5805 81.0903 31.7447 81.0015 32.0363C80.9128 32.328 80.8628 32.4921 80.774 32.7838L82.6874 33.3662ZM83.5852 30.4135C83.9289 29.4255 84.2497 28.5488 84.5477 27.7824L82.6837 27.0576C82.375 27.8512 82.0459 28.7512 81.6962 29.7565L83.5852 30.4135ZM84.5373 27.8081C84.8834 26.986 85.1859 26.2731 85.4448 25.6689L83.6066 24.8811C83.3455 25.4902 83.0413 26.2073 82.6941 27.0319L84.5373 27.8081ZM83.8186 24.5679C82.923 25.4635 82.0111 26.4873 81.0828 27.6367L82.6386 28.8933C83.5303 27.7894 84.3951 26.8198 85.2328 25.9821L83.8186 24.5679ZM81.0798 27.6403C80.1775 28.7682 79.2843 30.0876 78.3988 31.593L80.1226 32.607C80.9704 31.1658 81.8106 29.9284 82.6416 28.8897L81.0798 27.6403ZM78.417 31.5631C77.4881 33.0229 76.6262 34.5479 75.8313 36.1378L77.6201 37.0322C78.3852 35.5021 79.2133 34.0371 80.1044 32.6369L78.417 31.5631ZM75.8215 36.158C75.072 37.745 74.389 39.3755 73.7724 41.0493L75.649 41.7407C76.2457 40.1212 76.9061 38.545 77.63 37.012L75.8215 36.158ZM73.762 41.0788C73.7749 41.04 73.8033 40.9857 73.8533 40.9357C73.9018 40.8872 73.9456 40.8677 73.9587 40.8629C73.9684 40.8593 73.9486 40.8682 73.8842 40.872C73.8204 40.8758 73.7274 40.8737 73.5997 40.8577L73.3517 42.8423C73.7727 42.8949 74.231 42.894 74.6502 42.7396C75.119 42.5669 75.4911 42.216 75.6594 41.7112L73.762 41.0788ZM73.4757 40.85C73.1057 40.85 72.6104 40.7161 71.9677 40.3381L70.9537 42.0619C71.7844 42.5506 72.6324 42.85 73.4757 42.85V40.85ZM72.0015 40.3588C71.6139 40.1097 71.4556 39.8356 71.4119 39.5078L69.4295 39.7722C69.5591 40.7444 70.0942 41.5103 70.9199 42.0412L72.0015 40.3588ZM71.4207 39.64C71.4207 38.8915 71.5937 37.704 71.9801 36.0299L70.0313 35.5801C69.6377 37.286 69.4207 38.6552 69.4207 39.64H71.4207ZM71.9785 36.0366C72.1978 35.1155 72.3954 34.2153 72.5713 33.3361L70.6101 32.9439C70.4393 33.798 70.2469 34.6745 70.0329 35.5734L71.9785 36.0366ZM72.5608 33.3825C72.7766 32.5197 72.9922 31.6787 73.2078 30.8595L71.2736 30.3505C71.0559 31.178 70.8382 32.027 70.6206 32.8975L72.5608 33.3825ZM73.2108 30.8475C73.4246 29.9924 73.6126 29.3267 73.7744 28.8412L71.877 28.2088C71.6922 28.7633 71.4901 29.4843 71.2706 30.3625L73.2108 30.8475ZM73.7744 28.8412C73.9477 28.3212 74.0777 27.9312 74.1644 27.6712L72.267 27.0388C72.1804 27.2988 72.0504 27.6888 71.877 28.2088L73.7744 28.8412ZM72.4963 26.6604C71.193 28.0102 69.517 30.4636 67.4785 33.9334L69.2029 34.9465C71.2377 31.4831 72.8117 29.2131 73.9351 28.0496L72.4963 26.6604ZM67.4962 33.9045C66.3622 35.6927 65.293 37.46 64.2888 39.2065L66.0226 40.2035C67.0117 38.4833 68.0659 36.7406 69.1852 34.9755L67.4962 33.9045ZM64.2847 39.2137C63.3264 40.9125 62.3899 42.633 61.4753 44.3752L63.2461 45.3048C64.1515 43.5803 65.0783 41.8775 66.0267 40.1963L64.2847 39.2137ZM61.5032 44.3255C61.5016 44.3282 61.5008 44.3295 61.496 44.3333C61.4899 44.3381 61.4687 44.3531 61.4207 44.3704C61.317 44.4077 61.1199 44.4438 60.7883 44.4264L60.6831 46.4236C61.6276 46.4733 62.6671 46.273 63.2182 45.3545L61.5032 44.3255ZM60.9318 44.4444C60.5106 44.3602 60.1364 44.2769 59.8082 44.1949L59.3232 46.1351C59.6883 46.2264 60.0942 46.3165 60.5396 46.4056L60.9318 44.4444ZM59.8819 44.2163C59.5665 44.1112 59.27 43.9715 58.9907 43.797L57.9307 45.493C58.3448 45.7518 58.7849 45.9588 59.2495 46.1137L59.8819 44.2163ZM58.9079 43.7506C58.3911 43.4921 58.2998 43.2629 58.2791 43.1279L56.3023 43.4321C56.4549 44.4238 57.1437 45.1045 58.0135 45.5394L58.9079 43.7506ZM58.287 43.3654C58.5375 40.4429 59.4214 36.6483 60.9703 31.9586L59.0712 31.3314C57.5 36.0884 56.5639 40.0504 56.2944 43.1946L58.287 43.3654ZM60.9659 31.9715C61.784 29.6032 62.5558 27.5675 63.281 25.8611L61.4404 25.0789C60.6922 26.8392 59.904 28.9201 59.0755 31.3185L60.9659 31.9715ZM63.2726 25.8804C64.0364 24.183 64.788 22.8107 65.5229 21.7492L63.8785 20.6108C63.0534 21.8026 62.245 23.2903 61.4488 25.0596L63.2726 25.8804ZM65.5487 21.71C65.5366 21.7293 65.5177 21.7505 65.4952 21.767C65.4739 21.7826 65.4632 21.784 65.4756 21.7803C65.5095 21.7701 65.6259 21.7489 65.8685 21.7812L66.1329 19.7988C65.3532 19.6948 64.3873 19.7947 63.8527 20.65L65.5487 21.71ZM65.6845 21.7387C65.9601 21.8306 66.2557 21.9215 66.571 22.0115L67.1204 20.0885C66.829 20.0052 66.5613 19.9228 66.3169 19.8413L65.6845 21.7387ZM66.571 22.0115C66.7893 22.0739 67.0186 22.1706 67.2596 22.3082L68.2518 20.5718C67.8861 20.3628 67.5088 20.1994 67.1204 20.0885L66.571 22.0115ZM67.1745 22.2537C67.4677 22.4632 67.7124 22.647 67.911 22.8059L69.1604 21.2441C68.9257 21.0564 68.6504 20.8502 68.3369 20.6263L67.1745 22.2537ZM67.981 22.857C68.166 22.9804 68.3033 23.1078 68.4048 23.2347L69.9666 21.9853C69.7214 21.6789 69.4254 21.4163 69.0904 21.1929L67.981 22.857ZM68.4424 23.279C68.5121 23.3564 68.5595 23.4192 68.5905 23.467C68.6217 23.5152 68.6315 23.5406 68.6327 23.5441C68.6335 23.5463 68.6245 23.5215 68.6245 23.4753C68.6245 23.4263 68.6348 23.372 68.6566 23.3211L70.4949 24.1089C70.8722 23.2284 70.3697 22.4307 69.929 21.941L68.4424 23.279ZM68.7948 23.0903C68.4087 23.573 68.0336 24.1381 67.6675 24.7789L69.4039 25.7711C69.7311 25.1985 70.0494 24.7237 70.3566 24.3397L68.7948 23.0903ZM67.6675 24.7789C67.3172 25.3917 66.9028 26.1334 66.4245 27.0031L68.1769 27.9669C68.6519 27.1032 69.0608 26.3716 69.4039 25.7711L67.6675 24.7789ZM66.4265 26.9994C65.5309 28.6116 64.6666 30.5207 63.8309 32.7198L65.7005 33.4302C66.5115 31.296 67.3372 29.4784 68.1749 27.9706L66.4265 26.9994ZM65.6069 33.6158C65.9987 33.0062 66.4552 32.2889 66.9762 31.464L65.2852 30.396C64.7662 31.2178 64.3127 31.9304 63.9245 32.5342L65.6069 33.6158ZM66.9691 31.475C67.53 30.6122 68.1561 29.6621 68.8478 28.6247L67.1837 27.5153C66.4886 28.5579 65.8581 29.5145 65.2923 30.385L66.9691 31.475ZM68.8478 28.6247C69.5375 27.59 70.2272 26.5772 70.9166 25.5861L69.2748 24.4439C68.5776 25.4462 67.8805 26.47 67.1837 27.5153L68.8478 28.6247ZM70.9278 25.5697C71.6051 24.5537 72.3019 23.6037 73.018 22.7192L71.4635 21.4608C70.7061 22.3963 69.973 23.3963 69.2637 24.4603L70.9278 25.5697ZM73.0728 22.6447C74.3618 20.7111 75.3911 19.5076 76.1617 18.9204L74.9497 17.3296C73.9003 18.1291 72.7196 19.5689 71.4087 21.5353L73.0728 22.6447ZM76.1557 18.925C76.3517 18.778 76.6134 18.6985 77.1079 18.873L77.7735 16.987C76.7946 16.6415 75.7998 16.692 74.9557 17.325L76.1557 18.925ZM77.2238 18.9062C77.5003 18.9676 77.7631 19.0751 78.0157 19.233L79.0757 17.537C78.635 17.2616 78.1611 17.0657 77.6576 16.9538L77.2238 18.9062ZM78.1396 19.2988C78.4032 19.416 78.6047 19.5679 78.7614 19.7508L80.28 18.4492C79.9167 18.0255 79.4682 17.7007 78.9518 17.4712L78.1396 19.2988ZM78.9133 19.8944C79.2156 20.1255 79.359 20.3054 79.4202 20.4191C79.47 20.5115 79.4607 20.5459 79.4563 20.5651L81.4051 21.0149C81.67 19.8671 80.9688 18.9485 80.1282 18.3056L78.9133 19.8944ZM79.5363 20.3428C79.4437 20.528 79.3794 20.742 79.3306 20.9375L81.2708 21.4225C81.2881 21.3537 81.3028 21.3035 81.3144 21.2687C81.3267 21.2318 81.3313 21.2249 81.3251 21.2372L79.5363 20.3428ZM79.3007 21.18C79.3007 21.2021 79.292 21.3037 79.222 21.5138L81.1194 22.1462C81.2227 21.8363 81.3007 21.5046 81.3007 21.18H79.3007ZM79.2422 21.4586C79.1595 21.6654 79.0546 21.9174 78.9266 22.2161L80.7648 23.0039C80.8969 22.6959 81.0086 22.428 81.0992 22.2014L79.2422 21.4586ZM78.897 22.2938C78.8207 22.5228 78.7228 22.7783 78.6016 23.0611L80.4398 23.8489C80.5787 23.5251 80.6974 23.2172 80.7944 22.9262L78.897 22.2938ZM78.5559 23.1919C78.4354 23.6339 78.2956 24.0526 78.1372 24.4486L79.9942 25.1914C80.1825 24.7207 80.346 24.2294 80.4855 23.7181L78.5559 23.1919ZM78.1079 24.5327C77.9718 24.9862 77.8571 25.4215 77.7645 25.8381L79.7169 26.2719C79.7977 25.9085 79.8996 25.5204 80.0235 25.1073L78.1079 24.5327ZM77.8087 25.6926C77.6518 26.0961 77.5293 26.4473 77.4509 26.7344C77.4119 26.8773 77.3783 27.0244 77.3595 27.166C77.3435 27.2856 77.3233 27.4986 77.3806 27.7275L79.3208 27.2425C79.3564 27.3847 79.3362 27.4732 79.3419 27.4303C79.3447 27.4093 79.3545 27.356 79.3805 27.2606C79.4322 27.0711 79.5263 26.7939 79.6727 26.4174L77.8087 25.6926ZM79.0578 28.1921C79.2514 27.9985 79.3949 27.7626 79.5051 27.5422L77.7163 26.6478C77.6873 26.7058 77.6643 26.7443 77.6487 26.7678C77.6324 26.7921 77.6297 26.7918 77.6436 26.7779L79.0578 28.1921ZM79.4107 27.695C79.5265 27.5407 79.6879 27.3385 79.8989 27.0852L78.3625 25.8048C78.1402 26.0715 77.955 26.3027 77.8107 26.495L79.4107 27.695ZM79.9703 26.9883C80.427 26.2824 80.9714 25.528 81.6056 24.7246L80.0358 23.4854C79.37 24.3287 78.7877 25.1343 78.2911 25.9017L79.9703 26.9883ZM81.6016 24.7297C82.2998 23.8569 83.0838 22.8551 83.9533 21.7247L82.3681 20.5053C81.5043 21.6282 80.7283 22.6197 80.0398 23.4803L81.6016 24.7297ZM83.9354 21.7474C85.6484 19.6489 87.0728 18.2398 88.2134 17.4532L87.078 15.8068C85.7052 16.7535 84.1397 18.3344 82.386 20.4826L83.9354 21.7474ZM88.1647 17.4848C88.5943 17.224 88.9286 17.1848 89.2163 17.2487C89.5295 17.3183 89.9321 17.5432 90.4111 18.0775L91.9003 16.7425C91.2527 16.0201 90.5069 15.4867 89.6501 15.2963C88.7678 15.1002 87.9105 15.2994 87.1267 15.7752L88.1647 17.4848ZM90.4486 18.1171C90.752 18.4205 90.9832 18.7087 91.1527 18.98L92.8487 17.92C92.5849 17.4979 92.2528 17.0928 91.8628 16.7029L90.4486 18.1171ZM91.2414 19.1008C91.4319 19.323 91.5211 19.5016 91.5592 19.6347L93.4822 19.0853C93.3469 18.6118 93.0895 18.1837 92.76 17.7992L91.2414 19.1008ZM91.6016 19.7539C91.6897 19.9597 91.7251 20.3782 91.3099 21.171L93.0815 22.099C93.6196 21.0718 93.8717 19.9737 93.4398 18.9661L91.6016 19.7539ZM91.3134 21.1644C90.9459 21.8534 90.5634 22.688 90.1652 23.6614L92.0163 24.4186C92.398 23.4854 92.7522 22.7166 93.0781 22.1056L91.3134 21.1644ZM90.1716 23.6461C89.7794 24.561 89.3227 25.6484 88.8017 26.9076L90.6497 27.6724C91.1687 26.4182 91.622 25.339 92.0098 24.4339L90.1716 23.6461ZM88.7907 26.9353C88.3154 28.1884 87.8401 29.4198 87.365 30.6293L89.2265 31.3607C89.7046 30.1436 90.1827 28.9049 90.6607 27.6447L88.7907 26.9353ZM87.358 30.6477C86.9195 31.8316 86.503 33.0371 86.1087 34.264L88.0127 34.876C88.3984 33.6763 88.8053 32.4984 89.2335 31.3423L87.358 30.6477ZM86.1137 34.2487C85.2915 36.6721 84.8116 38.5288 84.7616 39.7284L86.7598 39.8116C86.7965 38.9312 87.1832 37.3213 88.0077 34.8913L86.1137 34.2487ZM86.2481 40.6432C88.311 39.4918 90.1553 37.5212 91.8119 34.8349L90.1095 33.7851C88.5594 36.2988 86.9371 37.9682 85.2733 38.8968L86.2481 40.6432ZM91.7928 34.8647C92.6707 33.5478 93.463 32.2716 94.1689 31.0361L92.4325 30.0439C91.7518 31.2351 90.984 32.4722 90.1287 33.7553L91.7928 34.8647ZM94.1555 31.059C94.8984 29.8353 95.5983 28.6325 96.2549 27.4506L94.5065 26.4794C93.8632 27.6375 93.1763 28.818 92.4459 30.021L94.1555 31.059ZM96.3807 26.965V26.835H94.3807V26.965H96.3807ZM95.5545 27.8198L96.6595 27.6248L96.3119 25.6552L95.2069 25.8502L95.5545 27.8198ZM113.699 34.115L113.574 33.1227L113.538 33.1273L113.502 33.1344L113.699 34.115ZM114.414 34.505L113.494 34.8989L113.531 34.9833L113.581 35.0597L114.414 34.505ZM114.414 36.455L113.545 35.9589L113.517 36.0085L113.494 36.0611L114.414 36.455ZM113.894 36.91V35.91H113.829L113.764 35.9184L113.894 36.91ZM111.099 37.04L111.148 36.0412L111.099 37.04ZM108.044 36.39L108.36 35.4413L107.537 35.1671L107.149 35.9428L108.044 36.39ZM107.199 38.21L108.103 38.6358L108.108 38.626L108.112 38.6161L107.199 38.21ZM105.899 40.55L105.053 40.016L105.049 40.0222L105.045 40.0285L105.899 40.55ZM104.144 42.89L103.396 42.2256L103.394 42.2284L104.144 42.89ZM101.934 44.645L101.468 43.7601L101.455 43.7666L101.443 43.7734L101.934 44.645ZM99.2685 45.035L99.1041 46.0214L99.1267 46.0252L99.1494 46.0279L99.2685 45.035ZM96.0835 44.06L95.6669 44.9691L95.6738 44.9722L95.6808 44.9753L96.0835 44.06ZM93.2885 42.24L92.6217 42.9852L93.2885 42.24ZM91.7285 39.835L92.6987 39.5925L92.6934 39.5716L92.6873 39.5509L91.7285 39.835ZM91.5335 36L90.5455 35.8456L91.5335 36ZM92.5735 31.97L93.5124 32.3143L93.5159 32.3044L92.5735 31.97ZM94.3285 28.33L95.1708 28.8691L95.1832 28.8497L95.1947 28.8297L94.3285 28.33ZM96.2135 25.795L96.894 26.5278L96.9075 26.5152L96.9206 26.5021L96.2135 25.795ZM96.9285 25.21L96.3738 24.3779V24.3779L96.9285 25.21ZM97.6435 24.625L98.3506 25.3321L98.7249 24.9578L98.6259 24.4379L97.6435 24.625ZM97.3185 21.895L96.3195 21.9404L96.3196 21.9426L97.3185 21.895ZM97.9685 19.165L97.0969 18.6747L97.0923 18.6831L97.9685 19.165ZM100.374 17.865L100.515 18.8549L100.529 18.8529L100.543 18.8505L100.374 17.865ZM104.274 18.125L103.995 19.0854L104.003 19.0877L104.274 18.125ZM108.044 20.27L108.722 19.5352L108.044 20.27ZM110.059 24.43L109.066 24.554L109.068 24.5639L110.059 24.43ZM109.994 29.045L109.009 28.8712L109.006 28.8853L109.004 28.8995L109.994 29.045ZM109.149 33.595L108.172 33.3781L108.024 34.047L108.594 34.427L109.149 33.595ZM111.034 34.18L110.885 35.169L110.892 35.1699L111.034 34.18ZM97.1885 41.59L96.2398 41.9062L96.631 43.0797L97.6965 42.4514L97.1885 41.59ZM100.894 38.08L100.041 37.5574L100.035 37.5676L100.029 37.5779L100.894 38.08ZM103.039 33.79L103.967 34.1614L104.264 33.418L103.604 32.9653L103.039 33.79ZM99.5285 29.825L100.418 29.3682L99.7914 28.1479L98.8214 29.1179L99.5285 29.825ZM98.6835 31.58L99.6233 31.9217L98.6835 31.58ZM97.6435 34.895L96.6795 34.6291L96.6763 34.6407L96.6734 34.6525L97.6435 34.895ZM96.9935 38.6L97.9878 38.7065L97.9882 38.7029L96.9935 38.6ZM104.014 30.085L103.093 30.4761L104.01 32.6326L104.933 30.4789L104.014 30.085ZM104.534 27.94L105.528 28.0447L105.529 28.0395L104.534 27.94ZM104.534 25.405L103.535 25.4549L103.536 25.4824L103.539 25.5097L104.534 25.405ZM104.209 23.13L103.226 23.3143L103.233 23.3513L103.242 23.3877L104.209 23.13ZM103.754 21.635L104.622 21.1389L103.892 19.8614L102.973 21.0103L103.754 21.635ZM102.779 25.21L101.779 25.2386L101.779 25.2528L101.78 25.267L102.779 25.21ZM113.823 35.1073C113.848 35.1041 113.77 35.1187 113.658 35.0579C113.541 34.9939 113.498 34.9076 113.494 34.8989L115.333 34.1111C115.199 33.7991 114.972 33.4961 114.616 33.3021C114.266 33.1113 113.896 33.0825 113.574 33.1227L113.823 35.1073ZM113.581 35.0597C113.621 35.1189 113.674 35.2383 113.674 35.48H115.674C115.674 34.9417 115.553 34.4111 115.246 33.9503L113.581 35.0597ZM113.674 35.48C113.674 35.6512 113.633 35.8054 113.545 35.9589L115.282 36.9511C115.541 36.4979 115.674 36.0021 115.674 35.48H113.674ZM113.494 36.0611C113.465 36.1305 113.464 36.0995 113.528 36.0437C113.563 36.0127 113.615 35.9768 113.685 35.9496C113.756 35.922 113.828 35.91 113.894 35.91V37.91C114.704 37.91 115.139 37.3006 115.333 36.8489L113.494 36.0611ZM113.764 35.9184C112.818 36.0418 111.947 36.0812 111.148 36.0412L111.049 38.0387C111.984 38.0855 112.976 38.0382 114.023 37.9016L113.764 35.9184ZM111.148 36.0412C110.402 36.0039 109.477 35.8136 108.36 35.4413L107.727 37.3387C108.95 37.7464 110.062 37.9894 111.049 38.0387L111.148 36.0412ZM107.149 35.9428C106.922 36.3961 106.634 37.0187 106.285 37.8039L108.112 38.6161C108.457 37.8413 108.731 37.2506 108.938 36.8372L107.149 35.9428ZM106.294 37.7842C105.968 38.4772 105.555 39.221 105.053 40.016L106.744 41.084C107.282 40.2324 107.736 39.4161 108.103 38.6358L106.294 37.7842ZM105.045 40.0285C104.604 40.7513 104.055 41.4839 103.396 42.2256L104.891 43.5544C105.618 42.7361 106.24 41.9087 106.752 41.0714L105.045 40.0285ZM103.394 42.2284C102.819 42.8791 102.178 43.3864 101.468 43.7601L102.399 45.5299C103.336 45.0369 104.168 44.3742 104.893 43.5516L103.394 42.2284ZM101.443 43.7734C100.993 44.0269 100.337 44.156 99.3877 44.0421L99.1494 46.0279C100.367 46.174 101.488 46.0431 102.424 45.5166L101.443 43.7734ZM99.4329 44.0486C98.4843 43.8905 97.5026 43.5919 96.4863 43.1447L95.6808 44.9753C96.8311 45.4815 97.9727 45.8328 99.1041 46.0214L99.4329 44.0486ZM96.5002 43.1509C95.548 42.7145 94.7013 42.1622 93.9553 41.4948L92.6217 42.9852C93.5224 43.7911 94.539 44.4521 95.6669 44.9691L96.5002 43.1509ZM93.9553 41.4948C93.2456 40.8597 92.8564 40.2234 92.6987 39.5925L90.7584 40.0775C91.034 41.18 91.6848 42.1469 92.6217 42.9852L93.9553 41.4948ZM92.6873 39.5509C92.3887 38.543 92.3243 37.4165 92.5215 36.1544L90.5455 35.8456C90.3094 37.3568 90.375 38.787 90.7697 40.1191L92.6873 39.5509ZM92.5215 36.1544C92.7282 34.8316 93.0586 33.5519 93.5124 32.3143L91.6346 31.6257C91.1351 32.9881 90.7721 34.3951 90.5455 35.8456L92.5215 36.1544ZM93.5159 32.3044C93.9698 31.0252 94.5227 29.8817 95.1708 28.8691L93.4862 27.7909C92.7477 28.9449 92.1305 30.2281 91.6311 31.6356L93.5159 32.3044ZM95.1947 28.8297C95.8198 27.7462 96.3899 26.9959 96.894 26.5278L95.5331 25.0622C94.8238 25.7208 94.1372 26.6605 93.4623 27.8303L95.1947 28.8297ZM96.9206 26.5021C97.0898 26.3329 97.2769 26.1796 97.4832 26.042L96.3738 24.3779C96.0601 24.5871 95.7706 24.8237 95.5064 25.0879L96.9206 26.5021ZM97.4832 26.042C97.7969 25.8329 98.0865 25.5963 98.3506 25.3321L96.9364 23.9179C96.7672 24.0871 96.5801 24.2404 96.3738 24.3779L97.4832 26.042ZM98.6259 24.4379C98.4612 23.5732 98.3585 22.7098 98.3174 21.8474L96.3196 21.9426C96.3652 22.9002 96.4792 23.8568 96.6612 24.8121L98.6259 24.4379ZM98.3175 21.8496C98.2828 21.0869 98.4533 20.3586 98.8447 19.6469L97.0923 18.6831C96.5304 19.7047 96.2675 20.7965 96.3195 21.9404L98.3175 21.8496ZM98.8401 19.6553C99.0096 19.3539 99.4395 19.0086 100.515 18.8549L100.232 16.875C98.8809 17.0681 97.7074 17.5894 97.0969 18.6747L98.8401 19.6553ZM100.543 18.8505C101.637 18.662 102.783 18.7335 103.995 19.0853L104.552 17.1647C103.078 16.7365 101.624 16.6347 100.204 16.8795L100.543 18.8505ZM104.003 19.0877C105.228 19.4322 106.347 20.0648 107.365 21.0048L108.722 19.5352C107.487 18.3952 106.093 17.5978 104.544 17.1623L104.003 19.0877ZM107.365 21.0048C108.294 21.8625 108.875 23.0204 109.066 24.554L111.051 24.306C110.809 22.373 110.046 20.7575 108.722 19.5352L107.365 21.0048ZM109.068 24.5639C109.271 26.0733 109.249 27.5075 109.009 28.8712L110.978 29.2188C111.258 27.6359 111.279 25.9934 111.05 24.2961L109.068 24.5639ZM109.004 28.8995C108.791 30.3472 108.514 31.84 108.172 33.3781L110.125 33.8119C110.476 32.23 110.762 30.6895 110.983 29.1905L109.004 28.8995ZM108.594 34.427C109.171 34.812 109.978 35.0329 110.885 35.1689L111.182 33.1911C110.356 33.0671 109.906 32.898 109.703 32.7629L108.594 34.427ZM110.892 35.1699C111.91 35.3153 112.912 35.292 113.895 35.0956L113.502 33.1344C112.751 33.2846 111.977 33.3047 111.175 33.19L110.892 35.1699ZM97.6965 42.4514C99.4961 41.3901 100.872 40.108 101.758 38.5821L100.029 37.5779C99.3547 38.7387 98.2609 39.7966 96.6805 40.7286L97.6965 42.4514ZM101.746 38.6026C102.6 37.2093 103.34 35.7286 103.967 34.1614L102.11 33.4186C101.524 34.8848 100.834 36.264 100.041 37.5574L101.746 38.6026ZM103.604 32.9653C102.221 32.0171 101.164 30.8208 100.418 29.3682L98.6389 30.2818C99.5397 32.0359 100.822 33.4829 102.473 34.6147L103.604 32.9653ZM98.8214 29.1179C98.5858 29.3535 98.4013 29.686 98.2538 29.9924C98.0928 30.3267 97.9229 30.7456 97.7437 31.2383L99.6233 31.9217C99.7908 31.4611 99.9351 31.1108 100.056 30.8601C100.19 30.5815 100.255 30.5131 100.236 30.5321L98.8214 29.1179ZM97.7437 31.2383C97.3859 32.2224 97.0314 33.3536 96.6795 34.6291L98.6075 35.1609C98.949 33.9231 99.2878 32.8443 99.6233 31.9217L97.7437 31.2383ZM96.6734 34.6525C96.3584 35.9122 96.1336 37.1938 95.9988 38.4971L97.9882 38.7029C98.1134 37.4928 98.3219 36.3045 98.6137 35.1375L96.6734 34.6525ZM95.9992 38.4935C95.8607 39.7863 95.918 40.9407 96.2398 41.9062L98.1372 41.2738C97.939 40.6793 97.8663 39.8404 97.9878 38.7065L95.9992 38.4935ZM104.933 30.4789C105.241 29.7602 105.433 28.9435 105.528 28.0447L103.539 27.8353C103.46 28.5832 103.306 29.1964 103.094 29.6911L104.933 30.4789ZM105.529 28.0395C105.622 27.1085 105.622 26.1949 105.528 25.3003L103.539 25.5097C103.618 26.2617 103.619 27.0382 103.538 27.8405L105.529 28.0395ZM105.532 25.3551C105.486 24.4373 105.371 23.6065 105.175 22.8723L103.242 23.3877C103.393 23.9535 103.494 24.6394 103.535 25.4549L105.532 25.3551ZM105.191 22.9457C105.057 22.2309 104.882 21.5944 104.622 21.1389L102.885 22.1311C102.972 22.2822 103.1 22.6424 103.226 23.3143L105.191 22.9457ZM102.973 21.0103C102.085 22.1201 101.731 23.572 101.779 25.2386L103.778 25.1814C103.739 23.8147 104.036 22.8833 104.534 22.2597L102.973 21.0103ZM101.78 25.267C101.875 26.9226 102.322 28.6612 103.093 30.4761L104.934 29.6939C104.232 28.0421 103.856 26.5308 103.777 25.1529L101.78 25.267ZM129.927 31.19L128.931 31.2871L128.933 31.3004L129.927 31.19ZM130.187 32.035L129.387 32.635L129.472 32.7493L129.587 32.835L130.187 32.035ZM130.642 32.36L130.087 33.1921L130.231 33.2881L130.399 33.3301L130.642 32.36ZM131.032 32.555L130.325 33.2621L130.491 33.429L130.715 33.5037L131.032 32.555ZM131.162 32.945L132.132 33.1875L132.138 33.1644L132.142 33.1411L131.162 32.945ZM129.992 33.53L129.929 32.5319L129.925 32.5322L129.992 33.53ZM127.847 33.335L127.63 34.3112L127.847 33.335ZM125.637 32.62L125.166 33.5024L125.2 33.5206L125.236 33.5362L125.637 32.62ZM124.532 31.45L125.512 31.2539L125.504 31.2104L125.491 31.1678L124.532 31.45ZM124.272 29.11L125.27 29.1626L125.27 29.1599L124.272 29.11ZM124.272 26.51L125.27 26.4601L125.151 24.0656L123.533 25.8354L124.272 26.51ZM118.357 34.7L119.227 35.1933L119.23 35.1878L118.357 34.7ZM114.457 44.905L115.421 45.1681L115.425 45.1553L115.428 45.1425L114.457 44.905ZM113.417 45.685V46.685H113.455L113.493 46.6821L113.417 45.685ZM111.532 45.295L111.903 44.3665L111.532 45.295ZM109.842 44.255L110.514 43.5151L109.842 44.255ZM109.257 42.89L110.241 43.0689L110.242 43.0617L110.243 43.0544L109.257 42.89ZM110.947 35.545L111.908 35.8219L111.91 35.8143L111.912 35.8067L110.947 35.545ZM113.417 28.005L114.35 28.3651L114.352 28.3597L113.417 28.005ZM116.472 20.855L115.57 20.4217L116.472 20.855ZM119.657 14.81L120.52 15.3152L120.525 15.3055L120.531 15.2956L119.657 14.81ZM120.567 14.095L120.784 15.0712H120.784L120.567 14.095ZM121.802 14.16L122.13 13.2155L122.11 13.2084L122.089 13.2022L121.802 14.16ZM123.882 15.46L123.082 16.06L123.11 16.0978L123.142 16.1327L123.882 15.46ZM124.077 17.15L123.17 16.7271L123.17 16.7289L124.077 17.15ZM122.257 20.985L123.151 21.4323L123.157 21.4206L122.257 20.985ZM120.242 25.47L119.317 25.0904L121.055 26.0512L120.242 25.47ZM121.997 22.935L121.19 22.3436L121.177 22.3617L121.165 22.3803L121.997 22.935ZM123.232 21.05L122.391 20.5092L122.376 20.5312L122.363 20.5539L123.232 21.05ZM123.947 19.945L124.779 20.4997L124.783 20.4928L124.788 20.4858L123.947 19.945ZM124.922 18.97L125.086 19.9564L125.163 19.9435L125.238 19.9187L124.922 18.97ZM126.222 19.23L125.828 20.1491L125.842 20.1552L125.856 20.1607L126.222 19.23ZM128.952 20.27L129.288 19.3283L128.952 20.27ZM130.187 21.115L131.035 20.585L130.187 21.115ZM130.382 22.61L129.39 22.4778L130.382 22.61ZM130.057 25.6L131.048 25.7322L131.05 25.7143L131.052 25.6963L130.057 25.6ZM128.933 31.3004C128.982 31.7446 129.094 32.2444 129.387 32.635L130.987 31.435C131.011 31.4671 131.001 31.4673 130.98 31.3997C130.96 31.3346 130.937 31.2314 130.921 31.0796L128.933 31.3004ZM129.587 32.835C129.77 32.9722 129.937 33.0921 130.087 33.1921L131.196 31.528C131.086 31.4546 130.95 31.3578 130.787 31.235L129.587 32.835ZM130.399 33.3301C130.43 33.338 130.435 33.3422 130.422 33.3357C130.408 33.3288 130.37 33.3074 130.325 33.2621L131.739 31.8479C131.478 31.5874 131.158 31.4583 130.884 31.3899L130.399 33.3301ZM130.715 33.5037C130.618 33.4713 130.506 33.4114 130.406 33.3109C130.305 33.2104 130.245 33.0984 130.213 33.0012C130.156 32.8293 130.187 32.7173 130.181 32.7489L132.142 33.1411C132.179 32.956 132.211 32.6707 132.11 32.3688C131.989 32.0052 131.712 31.7275 131.348 31.6063L130.715 33.5037ZM130.192 32.7025C130.209 32.6327 130.244 32.5669 130.289 32.5159C130.33 32.469 130.363 32.454 130.357 32.4568C130.35 32.4603 130.315 32.4758 130.24 32.4924C130.165 32.5088 130.064 32.5236 129.929 32.5319L130.054 34.5281C130.464 34.5024 130.886 34.4282 131.251 34.2457C131.645 34.049 132.002 33.7057 132.132 33.1875L130.192 32.7025ZM129.925 32.5322C129.389 32.568 128.771 32.516 128.064 32.3588L127.63 34.3112C128.483 34.5007 129.295 34.5787 130.058 34.5278L129.925 32.5322ZM128.064 32.3588C127.343 32.1987 126.668 31.9799 126.037 31.7038L125.236 33.5362C125.992 33.8668 126.79 34.1246 127.63 34.3112L128.064 32.3588ZM126.107 31.7376C125.845 31.5976 125.688 31.4739 125.6 31.3809C125.558 31.3361 125.536 31.303 125.525 31.2832C125.514 31.2644 125.513 31.2552 125.512 31.2539L123.551 31.6461C123.726 32.5217 124.424 33.1065 125.166 33.5024L126.107 31.7376ZM125.491 31.1678C125.309 30.5475 125.232 29.8813 125.27 29.1626L123.273 29.0574C123.224 29.9854 123.321 30.8792 123.572 31.7322L125.491 31.1678ZM125.27 29.1599C125.315 28.26 125.315 27.36 125.27 26.4601L123.273 26.5599C123.315 27.3933 123.315 28.2267 123.273 29.0601L125.27 29.1599ZM123.533 25.8354C121.185 28.4051 119.168 31.1977 117.484 34.2122L119.23 35.1878C120.838 32.309 122.765 29.6415 125.01 27.1846L123.533 25.8354ZM117.487 34.2067C115.787 37.2045 114.456 40.6955 113.485 44.6675L115.428 45.1425C116.364 41.3145 117.633 38.0022 119.227 35.1933L117.487 34.2067ZM113.492 44.6419C113.483 44.6741 113.476 44.6831 113.479 44.6786C113.483 44.6729 113.49 44.6642 113.499 44.6575C113.518 44.6435 113.489 44.6765 113.34 44.6879L113.493 46.6821C113.908 46.6502 114.334 46.5315 114.699 46.2575C115.075 45.9757 115.307 45.5894 115.421 45.1681L113.492 44.6419ZM113.417 44.685C112.955 44.685 112.453 44.5865 111.903 44.3665L111.16 46.2235C111.91 46.5235 112.665 46.685 113.417 46.685V44.685ZM111.903 44.3665C111.354 44.147 110.895 43.8614 110.514 43.5151L109.169 44.9949C109.741 45.5153 110.409 45.923 111.16 46.2235L111.903 44.3665ZM110.514 43.5151C110.198 43.2279 110.235 43.097 110.241 43.0689L108.273 42.7111C108.105 43.6363 108.532 44.4154 109.169 44.9949L110.514 43.5151ZM110.243 43.0544C110.626 40.7566 111.18 38.3459 111.908 35.8219L109.986 35.2681C109.24 37.8574 108.667 40.3434 108.27 42.7256L110.243 43.0544ZM111.912 35.8067C112.596 33.2834 113.409 30.8029 114.35 28.3651L112.484 27.6449C111.518 30.1471 110.684 32.6933 109.982 35.2833L111.912 35.8067ZM114.352 28.3597C115.296 25.871 116.303 23.5141 117.373 21.2883L115.57 20.4217C114.474 22.7026 113.444 25.1123 112.482 27.6503L114.352 28.3597ZM117.373 21.2883C118.447 19.0545 119.496 17.0641 120.52 15.3152L118.794 14.3048C117.737 16.1092 116.663 18.1489 115.57 20.4217L117.373 21.2883ZM120.531 15.2956C120.627 15.1231 120.707 15.0882 120.784 15.0712L120.35 13.1188C119.646 13.2752 119.12 13.7169 118.783 14.3244L120.531 15.2956ZM120.784 15.0712C120.986 15.0263 121.223 15.0303 121.514 15.1178L122.089 13.2022C121.514 13.0297 120.928 12.9904 120.35 13.1188L120.784 15.0712ZM121.473 15.1045C122.388 15.4229 122.864 15.7703 123.082 16.06L124.682 14.86C124.119 14.1097 123.208 13.5905 122.13 13.2155L121.473 15.1045ZM123.142 16.1327C123.238 16.238 123.257 16.3085 123.262 16.3546C123.268 16.4096 123.264 16.5258 123.17 16.7271L124.983 17.5729C125.192 17.1242 125.307 16.6337 125.249 16.1254C125.189 15.6081 124.959 15.1586 124.622 14.7873L123.142 16.1327ZM123.17 16.7289C122.609 17.9369 122.004 19.2104 121.357 20.5494L123.157 21.4206C123.809 20.073 124.418 18.7898 124.984 17.5711L123.17 16.7289ZM121.362 20.5378C120.699 21.8647 120.017 23.383 119.317 25.0904L121.167 25.8496C121.853 24.177 122.515 22.7053 123.151 21.4322L121.362 20.5378ZM121.055 26.0512C121.711 25.1341 122.302 24.2801 122.829 23.4897L121.165 22.3803C120.652 23.1498 120.073 23.9859 119.428 24.8888L121.055 26.0512ZM122.803 23.5264C123.299 22.8503 123.732 22.1902 124.1 21.5461L122.363 20.5539C122.038 21.1231 121.648 21.7197 121.19 22.3436L122.803 23.5264ZM124.073 21.5908C124.465 20.9808 124.698 20.621 124.779 20.4997L123.115 19.3903C123.022 19.529 122.778 19.9059 122.391 20.5092L124.073 21.5908ZM124.788 20.4858C124.963 20.2127 125.098 20.0453 125.19 19.9534C125.235 19.9087 125.254 19.8973 125.247 19.9015C125.241 19.9053 125.186 19.9398 125.086 19.9564L124.757 17.9836C124.318 18.0568 123.988 18.3265 123.776 18.5391C123.543 18.7722 123.32 19.0706 123.105 19.4042L124.788 20.4858ZM125.238 19.9187C125.131 19.9543 125.106 19.9226 125.246 19.9506C125.37 19.9755 125.56 20.0345 125.828 20.1491L126.616 18.3109C126.277 18.1655 125.947 18.0512 125.638 17.9894C125.344 17.9307 124.972 17.899 124.605 18.0213L125.238 19.9187ZM125.856 20.1607C127.071 20.6382 127.993 20.9896 128.615 21.2117L129.288 19.3283C128.697 19.1171 127.799 18.7751 126.587 18.2992L125.856 20.1607ZM128.615 21.2117C129.124 21.3936 129.293 21.5717 129.339 21.645L131.035 20.585C130.647 19.965 129.992 19.5798 129.288 19.3283L128.615 21.2117ZM129.339 21.645C129.377 21.7059 129.464 21.9281 129.39 22.4778L131.373 22.7422C131.473 21.9919 131.43 21.2174 131.035 20.585L129.339 21.645ZM129.39 22.4778C129.301 23.1466 129.192 24.1581 129.061 25.5037L131.052 25.6963C131.182 24.3552 131.289 23.3734 131.373 22.7422L129.39 22.4778ZM129.065 25.4678C128.796 27.4862 128.75 29.4268 128.931 31.2871L130.922 31.0929C130.757 29.3999 130.797 27.6138 131.048 25.7322L129.065 25.4678ZM151.721 25.47L151.014 24.7629L150.895 24.8814L150.822 25.032L151.721 25.47ZM152.371 25.275L152.207 26.2614L152.218 26.2633L152.23 26.2649L152.371 25.275ZM153.216 25.6L153.771 24.7679L153.216 25.6ZM153.801 26.315L152.882 26.7089L152.893 26.7359L152.907 26.7622L153.801 26.315ZM153.736 27.16L152.868 26.6639L152.819 26.7498L152.787 26.8438L153.736 27.16ZM151.331 32.23L150.479 31.7059L150.475 31.7122L151.331 32.23ZM147.886 36.91L148.636 37.5716L147.886 36.91ZM139.566 43.93L140.037 44.8124L140.046 44.8071L140.056 44.8016L139.566 43.93ZM137.486 44.32L137.603 43.3269L137.486 44.32ZM135.276 43.735L134.85 44.6398L134.872 44.6503L134.895 44.6597L135.276 43.735ZM133.261 42.565L133.842 41.7513L133.261 42.565ZM131.766 41.33L131.041 42.0187L131.05 42.028L131.059 42.0371L131.766 41.33ZM130.401 37.885L129.403 37.9437L129.403 37.9455L130.401 37.885ZM130.921 33.14L131.89 33.3884L131.893 33.3767L131.895 33.3649L130.921 33.14ZM132.741 27.875L133.652 28.2872L132.741 27.875ZM135.471 22.74L134.632 22.1958L134.627 22.2039L134.622 22.2121L135.471 22.74ZM138.721 18.515L139.454 19.1954L138.721 18.515ZM141.906 15.85L141.459 14.9556L141.436 14.9669L141.414 14.9794L141.906 15.85ZM143.596 15.395V16.395H143.638L143.679 16.3915L143.596 15.395ZM145.221 15.655L144.862 16.5883L144.894 16.6007L144.927 16.6108L145.221 15.655ZM146.911 16.5L146.342 17.3222L146.377 17.3468L146.415 17.3682L146.911 16.5ZM148.926 17.67L149.456 16.822L149.445 16.8149L149.433 16.8081L148.926 17.67ZM150.356 20.14L149.36 20.0534L149.356 20.0966V20.14H150.356ZM149.771 22.675L148.819 22.369L148.814 22.3846L148.809 22.4003L149.771 22.675ZM148.211 26.51L147.322 26.0513L147.317 26.0628L148.211 26.51ZM145.741 30.215L144.98 29.5665L144.978 29.5691L145.741 30.215ZM142.491 32.49L142.734 33.4601L142.766 33.4521L142.797 33.442L142.491 32.49ZM140.216 32.685L140.348 31.6938L140.216 32.685ZM138.071 32.035L138.477 31.1212L137.604 30.7331L137.177 31.5878L138.071 32.035ZM137.356 33.985L138.31 34.2861L138.312 34.2793L138.314 34.2723L137.356 33.985ZM136.771 36.52L135.782 36.3717L136.771 36.52ZM136.641 38.86L135.643 38.9224L135.643 38.9265L136.641 38.86ZM137.421 39.965L137.605 38.9821L137.6 38.9811L137.421 39.965ZM140.346 38.86L139.791 38.028L139.785 38.0323L139.778 38.0368L140.346 38.86ZM144.376 35.48L145.083 36.1871L145.089 36.1817L145.094 36.1761L144.376 35.48ZM148.471 30.67L147.673 30.0669L148.471 30.67ZM145.221 20.66L146.214 20.7768L146.475 18.5617L144.648 19.8408L145.221 20.66ZM143.531 22.415L142.75 21.7903L142.746 21.7954L143.531 22.415ZM141.581 25.08L140.755 24.5167L140.746 24.5298L140.737 24.5431L141.581 25.08ZM139.956 27.745L139.091 27.244L139.08 27.2614L139.071 27.2793L139.956 27.745ZM139.306 29.305H138.306V30.1521L139.142 30.2914L139.306 29.305ZM141.451 28.59L140.792 27.8374L140.78 27.848L140.769 27.8589L141.451 28.59ZM143.271 26.315L142.41 25.8063L142.406 25.8125L142.403 25.8189L143.271 26.315ZM144.571 23.325L143.622 23.0088L143.616 23.0268L143.611 23.045L144.571 23.325ZM152.428 26.1771C152.408 26.1974 152.364 26.2301 152.301 26.2491C152.24 26.2672 152.203 26.2607 152.207 26.2614L152.535 24.2886C151.985 24.1969 151.435 24.3418 151.014 24.7629L152.428 26.1771ZM152.23 26.2649C152.382 26.2867 152.523 26.3399 152.661 26.432L153.771 24.7679C153.389 24.5135 152.967 24.3499 152.512 24.285L152.23 26.2649ZM152.661 26.432C152.751 26.4916 152.824 26.5734 152.882 26.7089L154.72 25.9211C154.518 25.45 154.201 25.0551 153.771 24.7679L152.661 26.432ZM152.907 26.7622C152.901 26.7519 152.894 26.7341 152.889 26.7102C152.885 26.6861 152.884 26.6633 152.885 26.6446C152.888 26.6071 152.898 26.611 152.868 26.6639L154.604 27.6561C154.905 27.1298 155.007 26.4901 154.695 25.8678L152.907 26.7622ZM152.787 26.8438C152.251 28.4533 151.484 30.0739 150.479 31.7059L152.183 32.7541C153.258 31.0061 154.094 29.2467 154.685 27.4762L152.787 26.8438ZM150.475 31.7122C149.51 33.3068 148.398 34.8188 147.136 36.2484L148.636 37.5716C149.974 36.0545 151.158 34.4465 152.186 32.7478L150.475 31.7122ZM147.136 36.2484C145.866 37.6874 144.536 38.9967 143.144 40.1775L144.438 41.7025C145.906 40.4566 147.306 39.0793 148.636 37.5716L147.136 36.2484ZM143.144 40.1775C141.754 41.3567 140.398 42.3147 139.076 43.0584L140.056 44.8016C141.507 43.9853 142.968 42.95 144.438 41.7025L143.144 40.1775ZM139.095 43.0476C138.627 43.2976 138.138 43.3899 137.603 43.3269L137.369 45.3131C138.307 45.4235 139.205 45.2557 140.037 44.8124L139.095 43.0476ZM137.603 43.3269C136.963 43.2516 136.315 43.0815 135.657 42.8103L134.895 44.6597C135.71 44.9952 136.535 45.2151 137.369 45.3131L137.603 43.3269ZM135.702 42.8302C135.015 42.5068 134.396 42.1466 133.842 41.7513L132.68 43.3787C133.34 43.8501 134.064 44.2698 134.85 44.6398L135.702 42.8302ZM133.842 41.7513C133.266 41.3396 132.813 40.9631 132.473 40.6229L131.059 42.0371C131.499 42.4769 132.043 42.9237 132.68 43.3787L133.842 41.7513ZM132.491 40.6413C131.861 39.9776 131.475 39.0682 131.399 37.8245L129.403 37.9455C129.501 39.5618 130.025 40.949 131.041 42.0187L132.491 40.6413ZM131.399 37.8263C131.32 36.473 131.477 34.9959 131.89 33.3884L129.952 32.8916C129.498 34.6641 129.309 36.3503 129.403 37.9437L131.399 37.8263ZM131.895 33.3649C132.268 31.7481 132.852 30.0558 133.652 28.2872L131.83 27.4628C130.983 29.3342 130.353 31.1519 129.947 32.9151L131.895 33.3649ZM133.652 28.2872C134.458 26.5048 135.348 24.832 136.32 23.2679L134.622 22.2121C133.601 23.8547 132.67 25.6052 131.83 27.4628L133.652 28.2872ZM136.31 23.2842C137.323 21.722 138.372 20.3606 139.454 19.1954L137.988 17.8345C136.817 19.096 135.699 20.5513 134.632 22.1958L136.31 23.2842ZM139.454 19.1954C140.539 18.027 141.521 17.2162 142.398 16.7206L141.414 14.9794C140.297 15.6105 139.156 16.5764 137.988 17.8345L139.454 19.1954ZM142.353 16.7444C142.862 16.4902 143.271 16.395 143.596 16.395V14.395C142.881 14.395 142.164 14.6032 141.459 14.9556L142.353 16.7444ZM143.679 16.3915C144.027 16.3626 144.417 16.4173 144.862 16.5883L145.58 14.7217C144.898 14.4593 144.205 14.3408 143.513 14.3985L143.679 16.3915ZM144.927 16.6108C145.378 16.7495 145.849 16.9813 146.342 17.3222L147.48 15.6778C146.846 15.2387 146.191 14.9072 145.515 14.6992L144.927 16.6108ZM146.415 17.3682C147.017 17.7124 147.685 18.1003 148.419 18.5319L149.433 16.8081C148.693 16.3731 148.018 15.9809 147.407 15.6318L146.415 17.3682ZM148.396 18.518C149.204 19.0228 149.406 19.5228 149.36 20.0534L151.352 20.2266C151.479 18.7638 150.728 17.6172 149.456 16.822L148.396 18.518ZM149.356 20.14C149.356 20.4385 149.213 21.1422 148.819 22.369L150.723 22.981C151.109 21.7811 151.356 20.7948 151.356 20.14H149.356ZM148.809 22.4003C148.484 23.539 147.991 24.7556 147.322 26.0514L149.1 26.9686C149.818 25.5777 150.365 24.2376 150.732 22.9497L148.809 22.4003ZM147.317 26.0628C146.705 27.2865 145.927 28.4545 144.98 29.5665L146.502 30.8635C147.548 29.6355 148.417 28.3335 149.105 26.9572L147.317 26.0628ZM144.978 29.5691C144.126 30.5759 143.194 31.2138 142.185 31.538L142.797 33.442C144.215 32.9862 145.45 32.1074 146.504 30.8609L144.978 29.5691ZM142.248 31.5199C141.463 31.7163 140.837 31.7589 140.348 31.6938L140.084 33.6762C140.895 33.7844 141.786 33.697 142.734 33.4601L142.248 31.5199ZM140.348 31.6938C139.816 31.6228 139.195 31.4401 138.477 31.1212L137.665 32.9488C138.507 33.3232 139.316 33.5738 140.084 33.6762L140.348 31.6938ZM137.177 31.5878C136.921 32.099 136.663 32.8145 136.398 33.6977L138.314 34.2723C138.569 33.4222 138.788 32.8377 138.965 32.4822L137.177 31.5878ZM136.402 33.6839C136.126 34.5579 135.92 35.454 135.782 36.3717L137.76 36.6683C137.882 35.8527 138.066 35.0588 138.31 34.2861L136.402 33.6839ZM135.782 36.3717C135.644 37.2908 135.594 38.1432 135.643 38.9224L137.639 38.7976C137.601 38.1901 137.638 37.4825 137.76 36.6683L135.782 36.3717ZM135.643 38.9265C135.672 39.3579 135.778 39.8135 136.052 40.2004C136.345 40.6157 136.767 40.8625 137.242 40.9489L137.6 38.9811C137.589 38.9791 137.604 38.9803 137.63 38.9964C137.657 39.0132 137.676 39.0337 137.685 39.0471C137.693 39.0579 137.685 39.0505 137.672 39.0092C137.66 38.9671 137.646 38.8978 137.639 38.7935L135.643 38.9265ZM137.237 40.9479C137.83 41.0591 138.443 40.9417 139.026 40.7217C139.615 40.4991 140.247 40.1433 140.914 39.6832L139.778 38.0368C139.189 38.4433 138.704 38.7051 138.319 38.8508C137.926 38.9991 137.705 39.0009 137.605 38.9821L137.237 40.9479ZM140.901 39.6921C142.267 38.781 143.661 37.6091 145.083 36.1871L143.669 34.7729C142.318 36.1242 141.025 37.2057 139.791 38.028L140.901 39.6921ZM145.094 36.1761C146.512 34.7136 147.903 33.0786 149.269 31.2731L147.673 30.0669C146.352 31.8147 145.013 33.3864 143.658 34.7839L145.094 36.1761ZM149.269 31.2731C150.644 29.454 151.764 27.6657 152.62 25.908L150.822 25.032C150.032 26.6543 148.985 28.3327 147.673 30.0669L149.269 31.2731ZM144.648 19.8408C144.09 20.2311 143.453 20.9122 142.75 21.7903L144.312 23.0397C144.996 22.1845 145.485 21.6956 145.794 21.4792L144.648 19.8408ZM142.746 21.7954C142.08 22.6387 141.417 23.546 140.755 24.5167L142.407 25.6433C143.045 24.7074 143.682 23.838 144.316 23.0346L142.746 21.7954ZM140.737 24.5431C140.124 25.5061 139.575 26.4065 139.091 27.244L140.821 28.246C141.29 27.4368 141.824 26.5605 142.425 25.6169L140.737 24.5431ZM139.071 27.2793C138.848 27.7028 138.67 28.0684 138.545 28.3679C138.483 28.5174 138.428 28.6646 138.387 28.8035C138.351 28.9282 138.306 29.1088 138.306 29.305H140.306C140.306 29.3928 140.288 29.4272 140.306 29.3678C140.319 29.3224 140.346 29.2476 140.392 29.1371C140.483 28.9166 140.63 28.6106 140.841 28.2107L139.071 27.2793ZM139.142 30.2914C140.269 30.4793 141.288 30.1097 142.133 29.3211L140.769 27.8589C140.314 28.2837 139.903 28.3907 139.47 28.3186L139.142 30.2914ZM142.109 29.3426C142.897 28.6534 143.572 27.8046 144.139 26.8111L142.403 25.8189C141.93 26.6454 141.391 27.3133 140.792 27.8374L142.109 29.3426ZM144.132 26.8237C144.737 25.8002 145.204 24.7268 145.531 23.605L143.611 23.045C143.332 24.0032 142.932 24.9231 142.41 25.8063L144.132 26.8237ZM145.52 23.6412C145.879 22.5641 146.117 21.6051 146.214 20.7768L144.228 20.5432C144.152 21.1882 143.957 22.0059 143.622 23.0088L145.52 23.6412Z" fill="black"/>
</g>
<defs>
<filter id="filter0_d_5_32" x="0.27002" y="0.770004" width="157.726" height="61.105" filterUnits="userSpaceOnUse" color-interpolation-filters="sRGB">
<feFlood flood-opacity="0" result="BackgroundImageFix"/>
<feColorMatrix in="SourceAlpha" type="matrix" values="0 0 0 0 0 0 0 0 0 0 0 0 0 0 0 0 0 0 127 0" result="hardAlpha"/>
<feOffset dy="4"/>
<feGaussianBlur stdDeviation="2"/>
<feComposite in2="hardAlpha" operator="out"/>
<feColorMatrix type="matrix" values="0 0 0 0 0 0 0 0 0 0 0 0 0 0 0 0 0 0 0.25 0"/>
<feBlend mode="normal" in2="BackgroundImageFix" result="effect1_dropShadow_5_32"/>
<feBlend mode="normal" in="SourceGraphic" in2="effect1_dropShadow_5_32" result="shape"/>
</filter>
</defs>
</svg>
