<svg width="94" height="95" viewBox="0 0 94 95" fill="none" xmlns="http://www.w3.org/2000/svg">
<g filter="url(#filter0_d_8_4)">
<path d="M17.5258 69.5345L19.0363 63.4867L46.8881 46.9493L77.2749 51.7465C77.316 51.7495 77.3561 51.7558 77.3948 51.7654L77.2749 51.7465C76.5001 51.6894 75.332 52.7636 74.7664 53.1173C73.4387 53.9476 72.206 55.3092 70.5193 55.2652C68.0843 55.2017 66.6759 52.2622 64.4209 51.8303C63.4086 51.6364 62.801 54.6437 62.5572 55.2089C61.645 57.3237 60.2211 60.2584 58.797 62.0575C57.8113 63.3027 56.233 64.5551 54.596 64.1463C52.8932 63.721 51.9505 62.2652 51.4681 60.7134C51.2434 59.9907 51.2106 59.1784 50.9212 58.5058C50.8588 58.3608 50.7723 57.2189 50.8064 57.0179C50.8636 56.6803 51.0529 52.8171 50.5981 52.8968C49.2015 53.1416 48.3119 57.2132 47.3749 58.0359C46.5756 58.7376 46.1329 59.4919 45.0254 59.8104C44.5123 59.958 44.2367 59.8645 43.6962 59.7295C43.2118 59.6085 43.1989 59.3297 42.9872 58.9248C42.8051 58.5766 42.93 58.1604 42.7063 57.7877C42.541 57.5123 42.3534 57.1721 42.2243 56.8907C42.0656 56.5447 41.7489 56.6676 41.46 56.841C40.931 57.1587 40.9626 57.3633 40.6462 57.8381C40.198 58.5107 40.1302 59.6214 39.9342 60.406C39.5369 61.9968 38.7886 63.4421 38.3625 65.0029C38.142 65.8109 37.2477 68.1544 36.3124 68.4055C35.841 68.5321 35.1213 68.0843 34.7672 67.8078C34.4125 67.5308 34.3902 66.9458 34.3848 66.512C34.3718 65.4832 34.3897 64.46 34.3453 63.4347C34.3037 62.4741 34.558 61.344 33.4623 60.8764C32.4637 60.4502 31.8642 61.2763 31.1606 61.8941C30.2773 62.6695 29.3771 63.6534 28.6617 64.5806C28.3926 64.9294 28.1628 66.1211 27.5231 65.9986C27.1273 65.9228 27.0559 65.6439 26.8178 65.4302C26.4819 65.1286 25.9495 64.9293 25.5586 64.692C24.8337 64.2519 23.9387 63.9697 23.1865 64.4212C21.4434 65.4676 21.7641 68.1373 21.351 69.7917C20.7801 72.0772 16.9468 71.853 17.5258 69.5345Z" fill="#FFCA7A"/>
<path d="M17.5258 69.5345L19.0363 63.4867L46.8881 46.9493L77.2749 51.7465C77.316 51.7495 77.3561 51.7558 77.3948 51.7654L77.2749 51.7465C76.5001 51.6894 75.332 52.7636 74.7664 53.1173C73.4387 53.9476 72.206 55.3092 70.5193 55.2652C68.0843 55.2017 66.6759 52.2622 64.4209 51.8303C63.4086 51.6364 62.801 54.6437 62.5572 55.2089C61.645 57.3237 60.2211 60.2584 58.797 62.0575C57.8113 63.3027 56.233 64.5551 54.596 64.1463C52.8932 63.721 51.9505 62.2652 51.4681 60.7134C51.2434 59.9907 51.2106 59.1784 50.9212 58.5058C50.8588 58.3608 50.7723 57.2189 50.8064 57.0179C50.8636 56.6803 51.0529 52.8171 50.5981 52.8968C49.2015 53.1416 48.3119 57.2132 47.3749 58.0359C46.5756 58.7376 46.1329 59.4919 45.0254 59.8104C44.5123 59.958 44.2367 59.8645 43.6962 59.7295C43.2118 59.6085 43.1989 59.3297 42.9872 58.9248C42.8051 58.5766 42.93 58.1604 42.7063 57.7877C42.541 57.5123 42.3534 57.1721 42.2243 56.8907C42.0656 56.5447 41.7489 56.6676 41.46 56.841C40.931 57.1587 40.9626 57.3633 40.6462 57.8381C40.198 58.5107 40.1302 59.6214 39.9342 60.406C39.5369 61.9968 38.7886 63.4421 38.3625 65.0029C38.142 65.8109 37.2477 68.1544 36.3124 68.4055C35.841 68.5321 35.1213 68.0843 34.7672 67.8078C34.4125 67.5308 34.3902 66.9458 34.3848 66.512C34.3718 65.4832 34.3897 64.46 34.3453 63.4347C34.3037 62.4741 34.558 61.344 33.4623 60.8764C32.4637 60.4502 31.8642 61.2763 31.1606 61.8941C30.2773 62.6695 29.3771 63.6534 28.6617 64.5806C28.3926 64.9294 28.1628 66.1211 27.5231 65.9986C27.1273 65.9228 27.0559 65.6439 26.8178 65.4302C26.4819 65.1286 25.9495 64.9293 25.5586 64.692C24.8337 64.2519 23.9387 63.9697 23.1865 64.4212C21.4434 65.4676 21.7641 68.1373 21.351 69.7917C20.7801 72.0772 16.9468 71.853 17.5258 69.5345Z" stroke="#F1B353" stroke-width="0.25" stroke-linecap="round"/>
</g>
<g filter="url(#filter1_d_8_4)">
<mask id="mask0_8_4" style="mask-type:alpha" maskUnits="userSpaceOnUse" x="18" y="15" width="61" height="49">
<path d="M18.77 63.7345C31.6393 42.7449 37.5569 33.1235 52.6719 15.4714L78.5667 52.1843C54.8145 51.1528 43.0734 52.6733 18.77 63.7345Z" fill="#FFA665"/>
</mask>
<g mask="url(#mask0_8_4)">
<g filter="url(#filter2_d_8_4)">
<path d="M18.77 63.7345C31.6393 42.7449 37.5569 33.1235 52.6719 15.4714L78.5667 52.1843C54.8145 51.1528 43.0734 52.6733 18.77 63.7345Z" fill="#FFA665"/>
</g>
<path d="M67.796 44.3472C65.1162 48.4979 62.0988 50.9577 57.4005 49.7843C52.7022 48.6109 49.739 44.2741 50.7821 40.0979C51.8251 35.9216 56.4794 33.4874 61.1776 34.6608C65.8759 35.8342 68.8391 40.1709 67.796 44.3472Z" fill="#FB4E39"/>
<path d="M44.1692 54.5132C42.2023 57.637 40.0021 59.4975 36.6089 58.65C33.2157 57.8026 31.0991 54.5764 31.8814 51.4443C32.6636 48.3121 36.0485 46.4599 39.4417 47.3074C42.8349 48.1549 44.9515 51.381 44.1692 54.5132Z" fill="#FB4E39"/>
<path d="M52.6688 24.5022C51.0154 27.1018 49.1609 28.647 46.2897 27.93C43.4185 27.2129 41.6195 24.5156 42.2714 21.9055C42.9233 19.2953 45.7793 17.7607 48.6504 18.4777C51.5216 19.1948 53.3207 21.8921 52.6688 24.5022Z" fill="#FB4E39"/>
</g>
</g>
<g filter="url(#filter3_d_8_4)">
<path d="M82.2118 52.9685C71.7748 52.1193 73.9942 46.1695 65.3126 34.1872C56.6309 22.205 49.2613 14.0706 52.3113 11.8607C55.3614 9.65086 61.001 16.7693 69.6826 28.7515C78.3643 40.7338 85.2618 50.7586 82.2118 52.9685Z" fill="#FF9040"/>
</g>
<defs>
<filter id="filter0_d_8_4" x="4.34155" y="37.8188" width="86.0836" height="50.7004" filterUnits="userSpaceOnUse" color-interpolation-filters="sRGB">
<feFlood flood-opacity="0" result="BackgroundImageFix"/>
<feColorMatrix in="SourceAlpha" type="matrix" values="0 0 0 0 0 0 0 0 0 0 0 0 0 0 0 0 0 0 127 0" result="hardAlpha"/>
<feOffset dy="4"/>
<feGaussianBlur stdDeviation="6.5"/>
<feComposite in2="hardAlpha" operator="out"/>
<feColorMatrix type="matrix" values="0 0 0 0 0 0 0 0 0 0 0 0 0 0 0 0 0 0 0.3 0"/>
<feBlend mode="normal" in2="BackgroundImageFix" result="effect1_dropShadow_8_4"/>
<feBlend mode="normal" in="SourceGraphic" in2="effect1_dropShadow_8_4" result="shape"/>
</filter>
<filter id="filter1_d_8_4" x="4.77002" y="5.47142" width="87.7967" height="76.2631" filterUnits="userSpaceOnUse" color-interpolation-filters="sRGB">
<feFlood flood-opacity="0" result="BackgroundImageFix"/>
<feColorMatrix in="SourceAlpha" type="matrix" values="0 0 0 0 0 0 0 0 0 0 0 0 0 0 0 0 0 0 127 0" result="hardAlpha"/>
<feOffset dy="4"/>
<feGaussianBlur stdDeviation="7"/>
<feComposite in2="hardAlpha" operator="out"/>
<feColorMatrix type="matrix" values="0 0 0 0 0 0 0 0 0 0 0 0 0 0 0 0 0 0 0.1 0"/>
<feBlend mode="normal" in2="BackgroundImageFix" result="effect1_dropShadow_8_4"/>
<feBlend mode="normal" in="SourceGraphic" in2="effect1_dropShadow_8_4" result="shape"/>
</filter>
<filter id="filter2_d_8_4" x="5.77002" y="6.47142" width="85.7967" height="74.2631" filterUnits="userSpaceOnUse" color-interpolation-filters="sRGB">
<feFlood flood-opacity="0" result="BackgroundImageFix"/>
<feColorMatrix in="SourceAlpha" type="matrix" values="0 0 0 0 0 0 0 0 0 0 0 0 0 0 0 0 0 0 127 0" result="hardAlpha"/>
<feOffset dy="4"/>
<feGaussianBlur stdDeviation="6.5"/>
<feComposite in2="hardAlpha" operator="out"/>
<feColorMatrix type="matrix" values="0 0 0 0 0.741667 0 0 0 0 0.356013 0 0 0 0 0.312118 0 0 0 1 0"/>
<feBlend mode="normal" in2="BackgroundImageFix" result="effect1_dropShadow_8_4"/>
<feBlend mode="normal" in="SourceGraphic" in2="effect1_dropShadow_8_4" result="shape"/>
</filter>
<filter id="filter3_d_8_4" x="48.61" y="9.46034" width="37.3357" height="47.5081" filterUnits="userSpaceOnUse" color-interpolation-filters="sRGB">
<feFlood flood-opacity="0" result="BackgroundImageFix"/>
<feColorMatrix in="SourceAlpha" type="matrix" values="0 0 0 0 0 0 0 0 0 0 0 0 0 0 0 0 0 0 127 0" result="hardAlpha"/>
<feOffset dy="1"/>
<feGaussianBlur stdDeviation="1.5"/>
<feComposite in2="hardAlpha" operator="out"/>
<feColorMatrix type="matrix" values="0 0 0 0 0.941667 0 0 0 0 0.581128 0 0 0 0 0.317813 0 0 0 1 0"/>
<feBlend mode="normal" in2="BackgroundImageFix" result="effect1_dropShadow_8_4"/>
<feBlend mode="normal" in="SourceGraphic" in2="effect1_dropShadow_8_4" result="shape"/>
</filter>
</defs>
</svg>
